<svg width="74" height="74" viewBox="0 0 74 74" fill="none" xmlns="http://www.w3.org/2000/svg">
<g id="09.16.25_Ilustraci&#195;&#179;n_Callcenter 2">
<path id="Vector" d="M50.8747 32.7425L47.4213 32.0801L40.8013 33.5913L37.445 34.2882L37.3965 38.8517L44.8833 40.2249L49.9339 38.7344L51.8455 35.9374L50.8747 32.7425Z" fill="white" stroke="#1B605D" stroke-width="0.93" stroke-linecap="round" stroke-linejoin="round"/>
<path id="Vector_2" d="M53.3277 33.1983L51.3606 32.7383C51.3606 32.7383 47.7663 39.5214 42.0824 39.2155C37.4502 38.9671 37.4432 34.2886 37.4432 34.2886L34.0569 34.8843C34.0569 34.8843 32.4019 42.8199 33.9575 48.821C34.2326 49.879 36.6227 51.5352 36.8469 52.7036C37.6859 57.0486 36.2644 61.6558 36.2644 61.6558L59.2265 61.7111L53.3253 33.1983H53.3277Z" fill="#E64442"/>
<path id="Vector_3" d="M31.2676 36.8692C33.0959 34.5966 34.5545 34.8588 34.5545 34.8588L35.5368 45.7593L27.5507 55.811L24.3008 47.5373C24.3008 47.5373 29.5964 38.9462 31.2652 36.8692H31.2676Z" fill="#E64442"/>
<path id="Vector_4" d="M52.9369 33.1058C52.9369 33.1058 58.2117 33.5267 60.1048 42.1247C60.96 46.0143 62.0418 50.5732 62.3538 53.637C62.5804 55.859 61.3668 59.3368 59.1409 59.622L55.4911 60.1188C53.7505 60.1441 52.8005 58.5501 52.4353 57.0412L51.6194 54.4743C51.201 51.5416 53.457 51.5784 54.719 51.606L53.7783 40.4663L52.9392 33.1035L52.9369 33.1058Z" fill="#E64442"/>
<g id="Group" opacity="0.3">
<path id="Vector_5" d="M33.8657 48.1193C32.5204 45.8514 32.4904 42.9049 33.6646 40.5449C33.3133 43.059 33.3433 45.6352 33.905 48.1101" fill="black"/>
</g>
<g id="Group_2" opacity="0.3">
<path id="Vector_6" d="M45.8357 50.6831C46.8574 50.9821 48.2697 51.0557 49.2659 50.6785C48.487 51.778 46.9868 52.1759 45.6832 51.8194C44.3795 51.4605 43.1798 50.1633 43.0781 48.8223C43.7092 49.6756 44.8164 50.3864 45.8357 50.6854V50.6831Z" fill="black"/>
</g>
<path id="Vector_7" d="M54.0108 33.625C54.0108 33.625 52.2078 36.0678 52.328 39.2144" stroke="#AD3332" stroke-width="1.2" stroke-linecap="round" stroke-linejoin="round"/>
<path id="Vector_8" d="M52.0664 42.1445L54.7015 51.5821C54.7015 51.5821 57.6509 50.9058 59.1464 54.6321" stroke="#AD3332" stroke-width="1.2" stroke-linecap="round" stroke-linejoin="round"/>
<path id="Vector_9" d="M51.485 54.081C51.485 54.081 50.9534 51.6843 54.5246 51.5762" stroke="#AD3332" stroke-width="1.2" stroke-linecap="round" stroke-linejoin="round"/>
<path id="Vector_10" d="M54.7246 51.4025C54.7246 51.4025 55.2932 50.3766 58.5339 50.6274" stroke="#AD3332" stroke-width="1.2" stroke-linecap="round" stroke-linejoin="round"/>
<path id="Vector_11" d="M52.748 58C52.748 58 53.5779 59.9436 55.6628 59.8769C57.7455 59.8125 58.8041 59.6676 58.8041 59.6676C58.8041 59.6676 59.4074 59.686 60.1031 59.2743" stroke="#AD3332" stroke-miterlimit="10"/>
<path id="Vector_12" d="M40.9883 53.7793C40.9883 53.7793 40.9952 53.7816 40.9975 53.7839C40.9952 53.7839 40.9906 53.7816 40.9883 53.7793Z" fill="#FFBF9D"/>
<path id="Vector_13" d="M41.0469 53.8066C41.0469 53.8066 41.0607 53.8135 41.0677 53.8158C41.0607 53.8135 41.0538 53.8089 41.0469 53.8066Z" fill="#FFBF9D"/>
<path id="Vector_14" d="M41 53.7832C41.0185 53.7924 41.0347 53.7993 41.0485 53.8062C41.0324 53.7993 41.0139 53.7901 41 53.7832Z" fill="#FFBF9D"/>
<path id="Vector_15" d="M40.9668 53.7695C40.9668 53.7695 40.9807 53.7764 40.9876 53.7787C40.976 53.7718 40.9668 53.7695 40.9668 53.7695Z" fill="#FFBF9D"/>
<path id="Vector_16" d="M36.0146 58.2999C36.4376 57.504 39.7476 55.4017 39.7476 55.4017L38.8507 55.1947L37.8614 55.611C37.8614 55.611 37.799 56.0158 37.4361 56.5334C37.0732 57.0509 36.4561 56.515 36.4561 56.515L36.8744 54.5207L38.8322 53.3477C38.8322 53.3477 40.6745 53.6283 40.9704 53.7686L41.7563 54.4839C42.1007 54.7531 43.0946 55.8111 43.3673 55.8433C43.6401 55.8755 52.181 53.9641 52.181 53.9641C53.3529 54.8865 53.9701 56.7197 54.155 58.0423C54.155 58.0423 54.363 58.6909 54.1365 59.0451L43.6517 59.864L41.4303 60.4758C41.4303 60.4758 40.2006 60.975 39.6043 61.0992C38.8646 61.2533 38.3676 61.0164 38.3468 60.6093C38.326 60.2021 38.8993 60.1584 38.8993 60.1584C38.8993 60.1584 39.8331 59.8226 40.3278 59.5328C40.8247 59.243 41.1345 58.6518 41.1345 58.6518L40.3416 58.7461C40.3416 58.7461 38.6566 59.91 38.0255 60.2504C37.3922 60.5909 37.2674 59.9652 37.2165 59.7743C37.1657 59.5834 39.1073 57.6927 39.1073 57.6927C39.1073 57.6927 37.2604 58.8266 36.9276 59.1119C36.5947 59.3971 36.1024 59.4822 35.9984 59.2913C35.8921 59.1004 35.5939 59.0935 36.0169 58.2976L36.0146 58.2999Z" fill="white" stroke="#326A60" stroke-width="1.3" stroke-miterlimit="10"/>
<path id="Vector_17" d="M41.0684 53.8164C41.0684 53.8164 41.0822 53.8233 41.0869 53.8256L41.0684 53.8164Z" fill="#FFBF9D"/>
<path id="Vector_18" d="M41.0879 53.8262C41.0879 53.8262 41.0948 53.8308 41.0971 53.8308C41.0971 53.8308 41.0925 53.8285 41.0879 53.8262Z" fill="#FFBF9D"/>
<path id="Vector_19" d="M39.8226 55.3375C39.8203 55.3559 40.0838 55.3904 40.3866 55.2869C40.6917 55.1857 40.8813 55.0017 40.8674 54.9879C40.8535 54.9695 40.6501 55.119 40.3612 55.2133C40.0723 55.3122 39.8203 55.3145 39.8203 55.3375H39.8226Z" fill="white" stroke="#448582" stroke-width="0.93" stroke-linecap="round" stroke-linejoin="round"/>
<path id="Vector_20" d="M41.0453 58.6358C41.0545 58.6542 41.2441 58.5737 41.4775 58.484C41.711 58.392 41.9051 58.3253 41.8982 58.3046C41.8936 58.2839 41.6879 58.3184 41.4498 58.4127C41.2117 58.5047 41.036 58.6174 41.0453 58.6358Z" fill="white" stroke="#448582" stroke-width="0.93" stroke-linecap="round" stroke-linejoin="round"/>
<path id="Vector_21" d="M39.5452 57.6643C39.536 57.685 39.7279 57.7563 39.8712 57.9472C40.0191 58.1358 40.0353 58.3382 40.0584 58.3359C40.0676 58.3359 40.0769 58.283 40.0653 58.2002C40.0538 58.1174 40.0122 58.0047 39.9336 57.9012C39.855 57.7977 39.7556 57.7287 39.6793 57.6942C39.6007 57.6597 39.5499 57.6551 39.5452 57.6643Z" fill="white" stroke="#448582" stroke-width="0.5" stroke-linecap="round" stroke-linejoin="round"/>
<path id="Vector_22" d="M38.7661 56.4475C38.7568 56.4682 38.9001 56.5464 38.9972 56.712C39.0966 56.8776 39.0943 57.0409 39.1174 57.0409C39.1382 57.0478 39.1775 56.8615 39.0642 56.6729C38.9533 56.482 38.7707 56.4268 38.7661 56.4475Z" fill="white" stroke="#448582" stroke-width="0.5" stroke-linecap="round" stroke-linejoin="round"/>
<path id="Vector_23" d="M39.0295 54.2711C39.0295 54.2711 39.0688 54.2389 39.0919 54.1676C39.115 54.0963 39.1266 53.9905 39.0988 53.8778C39.0711 53.765 39.0133 53.6753 38.9601 53.6224C38.907 53.5695 38.863 53.5511 38.8584 53.558C38.8446 53.5741 38.9786 53.6937 39.0248 53.8962C39.0757 54.0986 39.011 54.2642 39.0318 54.2711H39.0295Z" fill="white" stroke="#448582" stroke-width="0.5" stroke-linecap="round" stroke-linejoin="round"/>
<path id="Vector_24" d="M48.1905 30.8116L48.0611 30.7518L36.2032 24.8657L36.1847 24.8473C35.1746 23.718 34.9643 19.7709 36.1662 16.9486C36.2356 16.7876 36.3026 16.6243 36.3696 16.461C36.9105 15.1545 37.4722 13.802 38.6996 13.0567C39.4069 12.6289 40.7938 11.8929 42.1529 11.7939C44.7464 11.603 47.4347 12.2701 49.1706 13.5352C50.9874 14.8601 52.2356 17.059 52.9937 20.2562C53.2295 21.2499 53.7334 23.7617 53.3474 25.6202C52.8435 28.0354 50.4465 29.5328 48.4425 30.6552L48.1882 30.8139L48.1905 30.8116Z" fill="#80D2CE" stroke="#2C7C75" stroke-miterlimit="10"/>
<path id="Vector_25" d="M35.3475 27.3948C37.2535 27.3948 38.7985 25.6904 38.7985 23.588C38.7985 21.4856 37.2535 19.7812 35.3475 19.7812C33.4416 19.7812 31.8965 21.4856 31.8965 23.588C31.8965 25.6904 33.4416 27.3948 35.3475 27.3948Z" fill="#336462" stroke="#609E9B" stroke-width="0.31" stroke-miterlimit="10"/>
<path id="Vector_26" d="M45.4094 37.2926C45.3678 37.5433 45.4487 37.7664 45.5897 37.7894C45.7307 37.8124 45.8786 37.6284 45.9202 37.3777C45.9618 37.127 45.8809 36.9038 45.7399 36.8808C45.5989 36.8578 45.451 37.0419 45.4094 37.2926Z" fill="#2C7C75"/>
<path id="Vector_27" d="M40.6905 31.4239L40.1265 34.1979L37.6902 34.329C37.4937 34.6878 36.264 41.2525 42.4472 41.4204C46.5085 41.5308 48.9448 38.3014 50.542 35.2422L47.1326 34.9317L48.182 27.2031L40.6928 31.4239H40.6905Z" fill="white"/>
<g id="Vector_28">
<path d="M42.6492 41.6359C42.5798 41.6359 42.5105 41.6359 42.4388 41.6336C40.3469 41.5761 38.8537 40.8033 38.0054 39.3404C36.8196 37.2932 37.3351 34.5262 37.4992 34.2271C37.5339 34.1627 37.6009 34.119 37.6772 34.1144L40.4902 33.6498C40.5735 33.636 40.6312 33.5624 40.6266 33.4773L40.481 31.444C40.4787 31.4025 40.4902 31.3634 40.5157 31.3312C40.9826 30.7585 45.4969 25.5671 46.2389 24.7367C46.2967 24.6723 46.3914 24.6631 46.4585 24.716C46.8445 25.015 48.548 24.5136 48.8208 24.7804C48.8555 24.8149 47.7506 25.3945 48.2452 25.9765L47.8939 32.0236C47.887 32.1064 47.9424 32.1823 48.0256 32.1961L51.2039 32.8102C51.2918 32.8263 51.3495 32.9114 51.3334 32.9989C51.2293 33.5417 50.7532 35.2875 50.7254 35.3404C48.5134 39.575 45.869 41.6359 42.6445 41.6359H42.6492Z" fill="white"/>
<path d="M40.125 34.1972H40.1273M42.6492 41.6359C42.5798 41.6359 42.5105 41.6359 42.4388 41.6336C40.3469 41.5761 38.8537 40.8033 38.0054 39.3404C36.8196 37.2932 37.3351 34.5262 37.4992 34.2271C37.5339 34.1627 37.6009 34.119 37.6772 34.1144L40.4902 33.6498C40.5735 33.636 40.6312 33.5624 40.6266 33.4773L40.481 31.444C40.4787 31.4025 40.4902 31.3634 40.5157 31.3312C40.9826 30.7585 45.4969 25.5671 46.2389 24.7367C46.2967 24.6723 46.3914 24.6631 46.4585 24.716C46.8445 25.015 48.548 24.5136 48.8208 24.7804C48.8555 24.8149 47.7506 25.3945 48.2452 25.9765L47.8939 32.0236C47.887 32.1064 47.9424 32.1823 48.0256 32.1961L51.2039 32.8102C51.2918 32.8263 51.3495 32.9114 51.3334 32.9989C51.2293 33.5417 50.7532 35.2875 50.7254 35.3404C48.5134 39.575 45.869 41.6359 42.6445 41.6359H42.6492Z" stroke="#326A60" stroke-width="1.3" stroke-miterlimit="10"/>
</g>
<path id="Vector_29" d="M32.6904 43.8418C31.2828 45.0333 30.127 46.5192 29.3203 48.173C29.5376 48.035 29.7572 47.897 29.9745 47.759C29.9144 47.9798 29.8543 48.2006 29.7942 48.4214C29.986 48.2466 30.1756 48.0695 30.3674 47.8947C30.3235 48.1086 30.2819 48.3225 30.238 48.5364C30.2888 48.5272 30.335 48.4927 30.3605 48.4467C29.8912 49.6704 29.7225 51.0068 29.8751 52.3064C30.4437 51.3679 30.9545 50.3926 31.3983 49.3875C31.4792 49.6359 31.4931 49.905 31.4376 50.1603C31.6156 49.8245 31.7936 49.4887 31.9739 49.1529C31.997 49.3806 32.0224 49.606 32.0455 49.8337C32.5425 47.9154 33.0372 45.997 33.5341 44.081L32.6904 43.8441V43.8418Z" fill="#61AFB3"/>
<path id="Vector_30" d="M29.7896 52.7034L29.7434 52.3193C29.6001 51.1025 29.7342 49.8535 30.1294 48.6873L30.0693 48.6988L30.1549 48.2687L29.5446 48.83L29.755 48.0525L28.9922 48.5332L29.1979 48.1123C30.0092 46.4493 31.1881 44.9358 32.6027 43.7374L32.6559 43.6914L33.6937 43.9812L31.9879 50.5712L31.8838 49.5936L31.091 51.0841L31.3037 50.1249C31.3245 50.0283 31.336 49.9317 31.336 49.8351C30.9338 50.7 30.4808 51.551 29.9861 52.3676L29.785 52.6988L29.7896 52.7034ZM30.3929 48.4481L30.4854 48.4918C30.0716 49.5706 29.896 50.7345 29.9723 51.8846C30.4553 51.0588 30.8922 50.2031 31.2782 49.3337L31.4192 49.0163L31.5279 49.3452C31.5556 49.428 31.5741 49.5108 31.588 49.5959L32.0618 48.7057L32.1034 49.0876L33.3747 44.1721L32.7252 43.9904C31.484 45.0531 30.4322 46.3619 29.6602 47.8041L30.1942 47.466L30.0462 48.0111L30.5802 47.5189L30.3929 48.4481Z" fill="#2C7C75"/>
<path id="Vector_31" d="M37.1213 29.0684C37.1213 29.0684 36.1644 31.1385 36.1644 32.3093C36.1644 32.3093 34.1026 34.8671 33.9962 36.07C33.9962 36.07 32.4129 37.947 32.8428 39.2949C32.8428 39.2949 31.6478 40.8866 32.7688 42.1724C33.8899 43.4581 34.5048 43.1522 34.5048 43.1522C34.5048 43.1522 37.8887 42.6002 38.3811 41.1327C38.3811 41.1327 39.5414 39.7388 39.9182 38.3173C40.3505 36.6911 40.191 31.5548 40.191 31.5548C38.781 31.0902 37.8656 30.1954 37.1236 29.0707L37.1213 29.0684Z" fill="#80D2CE"/>
<path id="Vector_32" d="M34.3126 43.3185C34.0098 43.3185 33.4528 43.1574 32.6692 42.2581C31.6128 41.0482 32.4958 39.5738 32.6992 39.2702C32.3386 37.9614 33.6585 36.2754 33.8688 36.0155C34.0098 34.8378 35.7735 32.5859 36.0324 32.2616C36.0555 31.0701 36.9616 29.0966 37.0009 29.0115L37.1026 28.793L37.2343 28.9931C38.0734 30.2674 38.998 31.0172 40.2323 31.4243L40.3202 31.4542V31.5463C40.3294 31.7556 40.4796 36.7216 40.0474 38.3478C39.6868 39.7072 38.6443 41.016 38.4987 41.1954C37.974 42.6675 34.8327 43.2287 34.5438 43.2771C34.5045 43.2932 34.4282 43.3162 34.3126 43.3162V43.3185ZM37.1465 29.3427C36.9061 29.9016 36.2982 31.4013 36.2982 32.3099V32.3559L36.2681 32.3927C36.2473 32.418 34.2294 34.9321 34.1277 36.0822L34.1231 36.1236L34.0954 36.1558C34.0792 36.1742 32.5652 37.9936 32.9674 39.2541L32.9882 39.3185L32.9466 39.3737C32.9003 39.4358 31.8301 40.8964 32.8657 42.0856C33.885 43.2563 34.4375 43.0355 34.4444 43.0309L34.4791 43.0194C34.5114 43.0148 37.7891 42.4651 38.2491 41.0873L38.2722 41.0436C38.2837 41.0298 39.4187 39.6543 39.7839 38.2788C40.1745 36.809 40.0728 32.3444 40.0543 31.6452C38.8685 31.2334 37.9601 30.5158 37.1419 29.3381L37.1465 29.3427Z" fill="#2C7C75"/>
<path id="Vector_33" d="M33.8389 42.7669C33.6655 42.6611 33.6447 42.5484 33.5153 42.3897C33.3858 42.2333 33.2448 42.0745 33.0599 41.9917C32.875 41.9089 32.63 41.9181 32.4913 42.0653C32.2948 42.277 32.4011 42.6197 32.3272 42.898C32.2856 43.0544 32.1838 43.1947 32.1607 43.3557C32.133 43.5581 32.237 43.7606 32.3873 43.9009C32.5352 44.0412 32.7247 44.1309 32.912 44.2183C33.1015 44.308 33.2957 44.3977 33.5037 44.423C33.7117 44.4483 33.9406 44.3977 34.0816 44.2413C34.174 44.1378 34.2179 44.0021 34.3081 43.8963C34.4167 43.7675 34.5762 43.6985 34.7103 43.5972C34.8444 43.496 34.9553 43.3281 34.9021 43.1694C34.8374 42.9808 34.5901 42.9371 34.3913 42.9371C34.1902 42.9371 33.9521 42.9325 33.8435 42.7669" fill="#336462"/>
<path id="Vector_34" d="M36.7885 42.3229C36.77 42.3436 36.4071 41.8905 36.2661 41.2073C36.1182 40.5265 36.2661 39.9652 36.2892 39.9767C36.3262 39.9813 36.236 40.5288 36.3794 41.1843C36.5157 41.8399 36.8209 42.3068 36.7885 42.3229Z" fill="#2C7C75"/>
<path id="Vector_35" d="M37.2266 38.4355C37.2266 38.4355 37.185 38.4908 37.0948 38.5759C37.007 38.6633 36.866 38.7737 36.6834 38.9002C36.5008 39.0267 36.2696 39.1555 36.0015 39.2774C35.7311 39.3924 35.4236 39.4959 35.0908 39.5672C34.7579 39.6339 34.432 39.6592 34.1385 39.6615C33.8449 39.6569 33.5791 39.6293 33.3618 39.5856C33.1445 39.5419 32.9712 39.4959 32.8556 39.4499C32.74 39.4085 32.6753 39.3809 32.6799 39.374C32.6869 39.3533 32.9457 39.443 33.378 39.5051C33.593 39.5396 33.8541 39.5557 34.1408 39.5557C34.4274 39.5488 34.7441 39.5212 35.07 39.4545C35.3936 39.3855 35.6964 39.2866 35.9622 39.1808C36.2257 39.0681 36.4569 38.9485 36.6418 38.8335C37.0116 38.6035 37.215 38.4217 37.2289 38.4378L37.2266 38.4355Z" fill="#2C7C75"/>
<path id="Vector_36" d="M37.9066 36.2019C37.9066 36.2019 37.865 36.2594 37.7748 36.3491C37.687 36.4411 37.546 36.5584 37.3634 36.6964C36.9982 36.9655 36.4388 37.2783 35.7592 37.4486C35.4194 37.5314 35.0889 37.5728 34.7884 37.5866C34.4856 37.5912 34.2151 37.5751 33.9886 37.536C33.7644 37.4992 33.5841 37.4555 33.4639 37.4141C33.3437 37.375 33.279 37.3497 33.2813 37.3405C33.2882 37.3198 33.5564 37.4026 34.0002 37.4555C34.2221 37.4854 34.4902 37.4923 34.7838 37.4808C35.0773 37.4624 35.4009 37.421 35.7315 37.3381C36.3926 37.1725 36.945 36.8781 37.3171 36.6297C37.6893 36.379 37.8904 36.1881 37.9066 36.2019Z" fill="#2C7C75"/>
<path id="Vector_37" d="M39.5976 38.619C39.5929 38.6305 39.4265 38.5845 39.1769 38.458C38.9272 38.3315 38.6036 38.1153 38.3008 37.8117C38.0003 37.5081 37.7877 37.1814 37.6629 36.933C37.538 36.6846 37.4941 36.5167 37.5057 36.5121C37.5404 36.4937 37.79 37.1423 38.3817 37.7312C38.9665 38.3292 39.6137 38.5868 39.5953 38.619H39.5976Z" fill="#2C7C75"/>
<path id="Vector_38" d="M39.9384 36.1091C39.9199 36.116 39.8668 35.9734 39.7212 35.7802C39.5802 35.5893 39.3305 35.3547 38.9884 35.2259C38.6463 35.0994 38.3042 35.1132 38.0708 35.1638C37.835 35.2144 37.6986 35.2857 37.6917 35.2696C37.6847 35.2604 37.8096 35.1592 38.0523 35.0856C38.2927 35.0119 38.6602 34.982 39.03 35.1201C39.3999 35.2581 39.6564 35.5226 39.7882 35.7342C39.9223 35.9481 39.95 36.1068 39.9384 36.1091Z" fill="#2C7C75"/>
<path id="Vector_39" d="M35.809 33.1064C35.809 33.1064 35.9823 33.0121 36.2967 33.0029C36.6041 32.9914 37.0548 33.0857 37.4339 33.3893C37.8107 33.6952 37.991 34.1185 38.0418 34.4198C38.0973 34.728 38.0488 34.9189 38.0372 34.9166C38.0164 34.9166 38.0326 34.7257 37.9609 34.4382C37.8916 34.153 37.709 33.7642 37.3599 33.479C37.0086 33.1938 36.5902 33.0949 36.2944 33.0834C35.9962 33.0696 35.8113 33.1248 35.8066 33.1041L35.809 33.1064Z" fill="#2C7C75"/>
<path id="Vector_40" d="M39.9524 33.8788C39.9431 33.8949 39.8368 33.8374 39.6519 33.7891C39.4693 33.7385 39.2058 33.7109 38.9238 33.7638C38.6418 33.819 38.406 33.9409 38.2558 34.0536C38.1032 34.1663 38.0246 34.2583 38.0107 34.2468C38.0015 34.2399 38.057 34.1272 38.2049 33.9915C38.3505 33.8558 38.6002 33.7109 38.903 33.6534C39.2081 33.5959 39.4924 33.6396 39.6773 33.7132C39.8645 33.7868 39.9593 33.8696 39.9524 33.8811V33.8788Z" fill="#2C7C75"/>
<path id="Vector_41" d="M39.12 31.4451C39.1431 31.4704 38.8635 31.7096 38.7248 32.1213C38.5791 32.5308 38.6508 32.8919 38.6161 32.8965C38.6023 32.8988 38.5653 32.8137 38.5468 32.6642C38.5283 32.5147 38.5399 32.303 38.6161 32.0845C38.6924 31.866 38.8149 31.6912 38.9212 31.5854C39.0276 31.4796 39.1108 31.4336 39.12 31.4451Z" fill="#2C7C75"/>
<path id="Vector_42" d="M50.5636 25.6982C51.6293 25.2069 52.1125 23.991 51.6429 22.9824C51.1733 21.9739 49.9287 21.5546 48.8631 22.0459C47.7975 22.5372 47.3143 23.7531 47.7839 24.7617C48.2535 25.7702 49.498 26.1895 50.5636 25.6982Z" fill="white"/>
<path id="Vector_43" d="M41.3485 31.6523C41.0157 31.6523 40.6805 31.6201 40.35 31.5557C38.6256 31.2221 37.174 30.056 36.261 28.2687C35.3595 26.4999 35.0937 24.3332 35.5167 22.1641C35.9397 19.9974 36.9984 18.0836 38.4985 16.7795C40.0148 15.4615 41.7993 14.9186 43.5236 15.2522C47.0625 15.9353 49.2307 20.1469 48.3546 24.6437C47.9316 26.8104 46.873 28.7242 45.3728 30.0284C44.1477 31.0933 42.747 31.6523 41.3462 31.6523H41.3485Z" fill="white" stroke="#326A60" stroke-width="1.3" stroke-miterlimit="10"/>
<path id="Vector_44" d="M41.348 25.3217L40.146 25.2688C40.0397 25.2642 39.9565 25.1745 39.9611 25.0686C39.9611 25.0548 39.9634 25.0387 39.9681 25.0249L40.8672 21.7656" fill="white"/>
<path id="Vector_45" d="M41.3483 25.5357C41.3483 25.5357 41.3414 25.5357 41.339 25.5357L40.1371 25.4828C39.9129 25.4736 39.7372 25.285 39.7464 25.0596C39.7464 25.0274 39.7534 24.9974 39.7603 24.9675L40.6595 21.7082C40.6918 21.5955 40.8074 21.5265 40.923 21.5587C41.0386 21.5909 41.1056 21.7082 41.0732 21.8209L40.181 25.0527L41.3575 25.1033C41.4754 25.1079 41.5679 25.2091 41.5633 25.3264C41.5586 25.4414 41.4639 25.5311 41.3483 25.5311V25.5357Z" fill="#326A60"/>
<path id="Vector_46" d="M45.0405 20.5672C45.0405 20.5672 43.9172 19.5436 42.9648 20.3786L45.0405 20.5672Z" fill="white"/>
<path id="Vector_47" d="M45.0403 20.795C44.9848 20.795 44.9316 20.7766 44.8854 20.7352C44.8461 20.6984 43.8984 19.8611 43.1148 20.5489C43.02 20.6317 42.8744 20.6225 42.7912 20.5282C42.708 20.4339 42.7172 20.289 42.812 20.2061C43.688 19.4402 44.7513 19.9968 45.1951 20.3994C45.2876 20.4845 45.2945 20.6271 45.209 20.7191C45.1651 20.7674 45.1027 20.7927 45.0403 20.7927V20.795Z" fill="#326A60"/>
<path id="Vector_48" d="M39.7813 19.849C39.7813 19.849 38.3366 19.2947 37.7402 20.3919L39.7813 19.849Z" fill="white"/>
<path id="Vector_49" d="M37.7404 20.6209C37.7034 20.6209 37.6664 20.6117 37.6317 20.5933C37.5208 20.5335 37.4792 20.3955 37.5393 20.2851C38.0871 19.2776 39.2983 19.4225 39.8646 19.6388C39.9825 19.6848 40.0403 19.8159 39.9963 19.9332C39.9501 20.0505 39.8184 20.108 39.7005 20.0643C39.6496 20.0459 38.4361 19.5973 37.9414 20.5036C37.8998 20.5795 37.8213 20.6232 37.7404 20.6232V20.6209Z" fill="#326A60"/>
<path id="Vector_50" d="M43.2278 22.7862C43.2658 22.3929 43.0813 22.0535 42.8157 22.0281C42.5501 22.0027 42.304 22.3009 42.266 22.6942C42.2281 23.0874 42.4126 23.4268 42.6781 23.4522C42.9437 23.4776 43.1898 23.1794 43.2278 22.7862Z" fill="#326A60"/>
<path id="Vector_51" d="M38.4908 22.1957C38.5239 21.7995 38.3362 21.4605 38.0716 21.4387C37.807 21.4168 37.5657 21.7203 37.5326 22.1165C37.4995 22.5128 37.6872 22.8517 37.9518 22.8736C38.2164 22.8955 38.4577 22.592 38.4908 22.1957Z" fill="#326A60"/>
<path id="Vector_52" d="M41.0918 27.6843C41.0918 27.6843 43.6298 27.7947 44.0019 25.7246L41.0918 27.6843Z" fill="white"/>
<path id="Vector_53" d="M41.1383 27.8984C41.1036 27.8984 41.0852 27.8984 41.0828 27.8984C40.965 27.8938 40.8725 27.7926 40.8771 27.6753C40.8817 27.558 40.9834 27.466 41.1013 27.4706C41.1938 27.4752 43.4567 27.5442 43.7896 25.6857C43.8104 25.5684 43.9236 25.4925 44.0392 25.5132C44.1571 25.5339 44.2334 25.6443 44.2126 25.7616C43.845 27.811 41.529 27.8984 41.1383 27.8984Z" fill="#326A60"/>
<path id="Vector_54" d="M35.5632 20.5747C35.5493 19.3234 35.7389 18.0561 36.2566 16.9175C36.7744 15.7789 37.6412 14.7737 38.7669 14.2171C39.8926 13.6628 41.2841 13.5961 42.4005 14.1711C41.9013 15.7513 40.7918 17.1337 39.3517 17.9664C38.7253 18.3298 38.0411 18.5897 37.4124 18.9462C36.7813 19.3027 36.1873 19.7812 35.8822 20.4344L35.5655 20.5747H35.5632Z" fill="#80D2CE" stroke="#2C7C75" stroke-miterlimit="10"/>
<path id="Vector_55" d="M48.665 15.7559C46.9869 14.1688 43.8179 13.2948 41.6289 14.0377C41.9548 15.9377 43.3949 18.0722 44.6639 19.5305C45.9398 20.998 46.7095 23.5673 49.4856 22.6932C49.6774 22.6334 49.8947 22.8059 50.0681 22.7047C50.2137 22.6196 50.2831 22.4471 50.3362 22.2861C51.0666 20.0319 50.3894 17.3868 48.665 15.7536V15.7559Z" fill="#80D2CE"/>
<path id="Vector_56" d="M48.4384 23.0037C46.9197 23.0037 46.0991 21.7962 45.3618 20.7082C45.0937 20.3149 44.8417 19.9422 44.562 19.6202C43.7715 18.7117 41.8876 16.3494 41.497 14.063L41.4785 13.9526L41.5848 13.9158C43.7438 13.1821 46.9613 13.9664 48.755 15.6639C50.5256 17.3385 51.2121 20.0181 50.4632 22.3321C50.4008 22.5253 50.3176 22.7185 50.135 22.8243C49.9963 22.9048 49.8484 22.8703 49.7305 22.8427C49.6519 22.8243 49.5802 22.8059 49.5247 22.8243C49.1272 22.9508 48.7666 23.006 48.4384 23.006V23.0037Z" fill="#80D2CE" stroke="#2C7C75" stroke-miterlimit="10"/>
<path id="Vector_57" d="M51.9915 26.8883C51.9915 26.8883 52.0308 26.9435 52.0885 27.0493C52.1463 27.1528 52.211 27.3161 52.2134 27.5277C52.218 27.7347 52.1463 27.9923 51.9452 28.1833C51.7511 28.3742 51.439 28.4984 51.127 28.4432C50.8149 28.3857 50.5676 28.1603 50.452 27.9164C50.3295 27.668 50.3549 27.4035 50.4312 27.2103C50.5075 27.0148 50.6254 26.8814 50.7155 26.8055C50.8057 26.7273 50.8658 26.6974 50.8635 26.6882C50.8635 26.6836 50.7941 26.702 50.6924 26.7756C50.5907 26.8469 50.4566 26.978 50.3688 27.185C50.2787 27.3874 50.2417 27.6795 50.3711 27.9555C50.4936 28.227 50.7618 28.4777 51.1108 28.5421C51.4598 28.6019 51.7996 28.4616 52.01 28.25C52.2272 28.0361 52.2966 27.7485 52.2827 27.5277C52.2711 27.3023 52.1926 27.1321 52.1232 27.0309C52.0516 26.9297 51.9961 26.8883 51.9938 26.8906L51.9915 26.8883Z" fill="#E0E0E0"/>
<path id="Vector_58" d="M48.168 24.7794C48.168 26.8818 49.7143 28.5885 51.619 28.5885C53.5237 28.5885 55.07 26.8841 55.07 24.7794C55.07 22.6748 53.5237 20.9727 51.619 20.9727C49.7143 20.9727 48.168 22.6771 48.168 24.7794Z" fill="#336462" stroke="#609E9B" stroke-width="0.31" stroke-miterlimit="10"/>
<path id="Vector_59" d="M52.2848 21.1818C52.2848 21.1818 53.073 12.2066 44.19 11.2497C43.4411 11.1692 42.683 11.229 41.9548 11.4199C40.8037 11.7212 39.0794 12.3331 38.1895 13.4395C38.3281 13.5269 40.7251 11.5073 42.9719 12.0088C45.1262 12.4895 49.8994 14.7275 50.1767 21.3198L51.1083 21.6418L52.2848 21.1818Z" fill="#336462"/>
<path id="Vector_60" d="M61.7656 39.1426C61.8119 39.184 61.835 39.207 61.8327 39.2116L61.7656 39.1426Z" fill="#2C7C75"/>
<path id="Vector_61" d="M52.0679 27.5666C53.3675 27.5666 54.421 26.268 54.421 24.6661C54.421 23.0642 53.3675 21.7656 52.0679 21.7656C50.7684 21.7656 49.7148 23.0642 49.7148 24.6661C49.7148 26.268 50.7684 27.5666 52.0679 27.5666Z" fill="#224341"/>
<path id="Vector_62" d="M12.8645 46.7344H34.2849C34.5623 46.7344 34.805 46.9414 34.8743 47.1829L37.7868 59.3921H46.3485C46.3485 59.3921 46.8339 61.9453 43.9561 61.9453H16.193C15.9156 61.9453 15.6729 61.7383 15.6036 61.4968L12.2751 47.4934C12.2057 47.1829 12.4138 46.8379 12.7258 46.7689C12.7605 46.7689 12.8298 46.7344 12.8645 46.7344Z" fill="#80D2CE"/>
<path id="Vector_63" d="M36.7794 61.4212L33.2105 47.6088C33.1412 47.3489 32.8985 47.1855 32.6211 47.1855" stroke="white" stroke-width="2.41" stroke-linecap="round" stroke-linejoin="round"/>
<path id="Vector_64" d="M25.4675 55.8581L21.8223 55.8535L22.0788 56.8127L25.724 56.8173L25.4675 55.8581Z" fill="white"/>
<path id="Vector_65" d="M22.5018 56.5347L23.6622 55.4284L23.1768 54.5957L21.8223 55.8562" fill="white"/>
<path id="Vector_66" d="M22.1863 53.5138L25.7228 53.5184L25.4662 52.5593L21.9297 52.5547L22.1863 53.5138Z" fill="white"/>
<path id="Vector_67" d="M25.0574 52.8477L23.8809 53.9425L24.364 54.7752L25.7208 53.517" fill="white"/>
<path id="Vector_68" d="M41.9355 46.6113C41.9355 46.6113 42.9387 52.2398 50.1158 50.6067" stroke="#AD3332" stroke-width="1.2" stroke-linecap="round" stroke-linejoin="round"/>
<path id="Vector_69" d="M67.1457 61.1465H0.568359V65.0199H67.1457V61.1465Z" fill="#448582"/>
</g>
</svg>
