<svg width="48" height="48" viewBox="0 0 48 48" fill="none" xmlns="http://www.w3.org/2000/svg">
<g id="Iconly/Light-Outline/Arrow - Right Circle">
<g id="Arrow - Right Circle">
<path id="Fill 1" fill-rule="evenodd" clip-rule="evenodd" d="M24 7C14.626 7 7 14.626 7 24C7 33.374 14.626 41 24 41C33.374 41 41 33.374 41 24C41 14.626 33.374 7 24 7ZM24 44C12.972 44 4 35.028 4 24C4 12.972 12.972 4 24 4C35.028 4 44 12.972 44 24C44 35.028 35.028 44 24 44Z" fill="white"/>
<path id="Fill 3" fill-rule="evenodd" clip-rule="evenodd" d="M21.1179 32.4421C20.7339 32.4421 20.3479 32.2961 20.0559 32.0001C19.4719 31.4121 19.4739 30.4641 20.0599 29.8801L25.9639 24.0001L20.0599 18.1221C19.4739 17.5381 19.4719 16.5881 20.0559 16.0001C20.6399 15.4101 21.5879 15.4141 22.1759 15.9961L29.1479 22.9381C29.4299 23.2201 29.5879 23.6021 29.5879 24.0001C29.5879 24.4001 29.4299 24.7821 29.1479 25.0641L22.1759 32.0041C21.8839 32.2961 21.4999 32.4421 21.1179 32.4421Z" fill="white"/>
</g>
</g>
</svg>
