<svg width="26" height="11" viewBox="0 0 26 11" fill="none" xmlns="http://www.w3.org/2000/svg">
<g id="club" clip-path="url(#clip0_321_3351)">
<path id="Vector" d="M8.92578 3.50869H8.53771C8.24665 1.89662 7.08241 1.23283 5.5301 1.23283C3.88076 1.23283 1.55229 2.27593 1.55229 5.5949C1.55229 8.43972 3.58972 10.4311 5.72415 10.4311C7.08242 10.4311 8.24665 9.48283 8.53771 8.06042L8.82875 8.15525L8.53771 10.1466C7.95559 10.5259 6.30625 10.9052 5.43307 10.9052C2.13441 10.9052 0 8.81904 0 5.68973C0 2.8449 2.61953 0.853516 5.33607 0.853516C6.50031 0.853516 7.56752 1.23283 8.63473 1.61214L8.92578 3.50869Z" fill="#231B19"/>
<path id="Vector_2" d="M9.41148 10.338H9.70255C10.0906 10.338 10.3817 10.338 10.3817 9.86382V2.18278C10.3817 1.23451 10.1876 1.23451 9.60553 1.13968V0.95003C10.1876 0.760375 10.7698 0.475886 11.0608 0.381059C11.2549 0.286231 11.3519 0.191406 11.3519 0.191406C11.4489 0.191406 11.4489 0.286231 11.4489 0.381059V9.95865C11.4489 10.4328 11.74 10.4328 12.128 10.4328H12.3221V10.8121C11.837 10.8121 11.3519 10.8121 10.8668 10.8121C10.3817 10.8121 9.89657 10.8121 9.31445 10.8121L9.41148 10.338Z" fill="#231B19"/>
<path id="Vector_3" d="M18.5282 9.95771C18.5282 10.2422 18.7223 10.2422 18.9163 10.2422C19.1104 10.2422 19.3044 10.2422 19.4984 10.2422V10.5267C18.9163 10.6215 17.7521 10.906 17.461 11.0008H17.364V9.86287C16.4908 10.5267 15.9087 11.0008 14.8415 11.0008C14.0653 11.0008 13.2892 10.5267 13.2892 9.38873V5.88012C13.2892 5.50081 13.1922 5.21632 12.416 5.12149V4.83701C12.9011 4.83701 14.0653 4.74219 14.2594 4.74219C14.4534 4.74219 14.4534 4.83701 14.4534 5.12149V8.72494C14.4534 9.10425 14.4534 10.337 15.7147 10.337C16.1998 10.337 16.7819 9.95771 17.461 9.48357V5.78529C17.461 5.50081 16.7819 5.31115 16.2968 5.21633V4.93184C17.5581 4.83701 18.3342 4.74219 18.5282 4.74219C18.6253 4.74219 18.6253 4.83701 18.6253 5.02667L18.5282 9.95771Z" fill="#231B19"/>
<path id="Vector_4" d="M21.2457 5.31034C21.8278 4.83621 22.604 4.26724 23.3801 4.26724C25.0295 4.26724 25.9997 5.68966 25.9997 7.2069C25.9997 9.00862 24.6414 10.8103 22.604 10.8103C21.5368 10.8103 21.0517 10.431 20.6636 10.3362L20.2755 10.6207L19.9844 10.431C20.0815 9.57759 20.1785 8.81896 20.1785 7.96551V1.99138C20.1785 1.0431 19.9845 1.0431 19.4023 0.948276V0.758617C19.9845 0.568961 20.5666 0.28448 20.8576 0.189652C21.0517 0.0948247 21.1487 0 21.1487 0C21.2457 0 21.2457 0.0948247 21.2457 0.189652V5.31034ZM21.3427 9.10345C21.3427 9.67241 21.8278 10.5259 22.798 10.5259C24.3503 10.5259 24.9324 9.10345 24.9324 7.87069C24.9324 6.35345 23.7682 5.12069 22.701 5.12069C22.2159 5.12069 21.7308 5.5 21.3427 5.78448V9.10345Z" fill="#231B19"/>
</g>
<defs>
<clipPath id="clip0_321_3351">
<rect width="26" height="11" fill="white"/>
</clipPath>
</defs>
</svg>
