<svg width="22" height="22" viewBox="0 0 22 22" fill="none" xmlns="http://www.w3.org/2000/svg">
<g id="Group 1707478176">
<path id="Vector" d="M0 10.5255C0 16.338 4.77088 21.0487 10.6605 21.0487C12.5282 21.0487 14.2849 20.5726 15.8128 19.7399L21.714 21.6054L19.7908 15.9562C20.7616 14.3714 21.3187 12.5105 21.3187 10.5232C21.3187 4.71072 16.5478 0 10.6605 0C4.77319 0 0.00231196 4.71302 0.00231196 10.5255H0Z" fill="#5ABC4B"/>
<path id="Vector_2" d="M3.14648 10.1786C3.14648 14.3074 6.5351 17.6541 10.7166 17.6541C12.0433 17.6541 13.2892 17.316 14.3756 16.7249L18.5663 18.0498L17.2002 14.0383C17.889 12.9135 18.2866 11.5909 18.2866 10.1786C18.2866 6.04985 14.898 2.70312 10.7166 2.70312C6.5351 2.70312 3.14648 6.04985 3.14648 10.1786ZM10.7189 3.8946C14.2277 3.8946 17.0823 6.7146 17.0823 10.1786C17.0823 11.5541 16.6316 12.8261 15.8711 13.8612L16.6663 16.1935L14.2207 15.4207C13.2153 16.0762 12.011 16.4604 10.7189 16.4604C7.21005 16.4604 4.35307 13.6427 4.35307 10.1763C4.35307 6.7123 7.20774 3.89231 10.7189 3.89231V3.8946ZM14.3825 11.8991C14.3363 11.8232 14.2115 11.7772 14.0266 11.6852C13.8417 11.5932 12.9286 11.1493 12.7599 11.0895C12.5888 11.0274 12.4663 10.9975 12.3415 11.1815C12.219 11.3655 11.863 11.7772 11.7544 11.9014C11.6458 12.0234 11.5371 12.0395 11.3522 11.9498C11.1673 11.8577 10.5686 11.6645 9.859 11.0412C9.30655 10.5559 8.93441 9.95552 8.82808 9.7715C8.71944 9.58749 8.81652 9.48858 8.90898 9.39888C8.99219 9.31607 9.0939 9.18497 9.18867 9.07686C9.28113 8.97105 9.31349 8.89515 9.37359 8.77324C9.43369 8.65133 9.40364 8.54322 9.35741 8.45121C9.31118 8.35921 8.94134 7.45755 8.78416 7.09182C8.62929 6.7261 8.47442 6.7859 8.36579 6.7859C8.25715 6.7859 8.13464 6.7698 8.00982 6.7698C7.885 6.7698 7.6839 6.8135 7.51516 6.99752C7.34643 7.18153 6.86564 7.62316 6.86564 8.52482C6.86564 9.42648 7.52903 10.2982 7.6238 10.4201C7.71626 10.5421 8.90898 12.4535 10.7951 13.1872C12.6813 13.921 12.6813 13.6749 13.0211 13.645C13.3609 13.6151 14.119 13.201 14.2739 12.7755C14.4288 12.3454 14.4288 11.9774 14.3825 11.9014V11.8991Z" fill="white"/>
</g>
</svg>
