<svg width="108" height="36" viewBox="0 0 108 36" fill="none" xmlns="http://www.w3.org/2000/svg">
<g id="Logo ">
<path id="Vector" d="M58.23 12.4187C57.4049 11.6413 56.4766 10.961 55.342 10.4752C54.2074 9.98927 53.0729 9.79492 51.732 9.79492C50.4943 9.79492 49.3597 9.98927 48.4314 10.4752C47.5031 10.961 46.7811 11.5441 46.1622 12.2243V10.2808H41.3145V35.0607H46.2654V26.0233C46.8842 26.7036 47.6062 27.2866 48.5345 27.6753C49.4628 28.064 50.4943 28.2584 51.732 28.2584C52.9697 28.2584 54.2074 28.064 55.342 27.5782C56.4766 27.0923 57.4049 26.5092 58.23 25.6346C59.0552 24.8572 59.6741 23.8855 60.0866 22.7194C60.4992 21.5532 60.8086 20.3871 60.8086 19.0267C60.8086 17.6662 60.6024 16.5001 60.0866 15.334C59.6741 14.1679 59.0552 13.1961 58.23 12.4187ZM55.342 20.873C55.1357 21.4561 54.8263 21.9419 54.4137 22.4278C54.0012 22.8165 53.4854 23.2052 52.8666 23.4968C52.2477 23.7883 51.6288 23.8855 50.9068 23.8855C50.1848 23.8855 49.566 23.7883 48.9471 23.4968C48.3282 23.3024 47.8125 22.9137 47.3999 22.525C46.9874 22.1363 46.6779 21.5532 46.4716 20.9702C46.2654 20.3871 46.1622 19.7069 46.1622 19.0267C46.1622 18.3464 46.2654 17.6662 46.4716 17.0831C46.6779 16.5001 46.9874 16.0142 47.3999 15.5283C47.8125 15.1396 48.3282 14.7509 48.9471 14.5566C49.566 14.3622 50.1848 14.1678 50.9068 14.1678C51.6288 14.1678 52.3508 14.265 52.8666 14.5566C53.4854 14.8481 54.0012 15.1396 54.4137 15.6255C54.8263 16.0142 55.1357 16.5973 55.342 17.1803C55.5483 17.7634 55.6514 18.4436 55.6514 19.0267C55.6514 19.6097 55.5483 20.2899 55.342 20.873Z" fill="#00A09D"/>
<path id="Vector_2" d="M78.1347 12.1267C77.5158 11.4464 76.7938 10.8634 75.8655 10.3775C74.9372 9.89162 73.9058 9.69727 72.5649 9.69727C71.3272 9.69727 70.0895 9.89162 68.9549 10.3775C67.8203 10.8634 66.892 11.4464 66.0669 12.321C65.2417 13.0984 64.6229 14.0702 64.2103 15.2363C63.7977 16.4024 63.4883 17.5685 63.4883 18.929C63.4883 20.2895 63.6946 21.4556 64.2103 22.6217C64.6229 23.7878 65.3449 24.7596 66.0669 25.537C66.892 26.3144 67.8203 26.9946 68.9549 27.4805C70.0895 27.9664 71.224 28.1607 72.5649 28.1607C73.8026 28.1607 74.9372 27.9664 75.8655 27.4805C76.7938 26.9946 77.5158 26.5088 78.1347 25.7313V27.6749H82.9824V10.1831H78.1347V12.1267ZM77.9284 20.8725C77.7221 21.4556 77.4127 21.9415 77.0001 22.4273C76.5875 22.8161 76.0718 23.2048 75.4529 23.3991C74.8341 23.5935 74.2152 23.7878 73.4932 23.7878C72.7712 23.7878 72.1523 23.6906 71.5335 23.3991C70.9146 23.1076 70.3989 22.8161 69.9863 22.3302C69.5737 21.9415 69.2643 21.3584 69.058 20.7754C68.8517 20.1923 68.7486 19.5121 68.7486 18.929C68.7486 18.2488 68.8517 17.6657 69.058 17.0827C69.2643 16.4996 69.5737 16.0137 69.9863 15.5278C70.3989 15.1391 70.9146 14.7504 71.5335 14.4589C72.1523 14.1674 72.7712 14.0702 73.4932 14.0702C74.2152 14.0702 74.8341 14.1674 75.4529 14.4589C76.0718 14.6533 76.5875 15.042 77.0001 15.4307C77.4127 15.8194 77.7221 16.4024 77.9284 16.9855C78.1347 17.5685 78.2378 18.2488 78.2378 18.929C78.2378 19.6092 78.1347 20.2895 77.9284 20.8725Z" fill="#00A09D"/>
<path id="Vector_3" d="M101.033 10.1836L96.0821 19.221L90.9249 10.1836H85.252L93.2972 23.9826L86.7991 35.0607H92.2657L106.5 10.1836H101.033Z" fill="#00A09D"/>
<g id="Group 1707478174">
<path id="Vector_4" d="M7.27672 10.1836H2.22266V27.6753H7.27672V10.1836Z" fill="#FF4240"/>
<path id="Vector_5" d="M6.96663 2.31208C6.65719 2.02056 6.34776 1.8262 5.93519 1.63185C5.52261 1.4375 5.11003 1.4375 4.69746 1.4375C4.28488 1.4375 3.87231 1.53468 3.45973 1.63185C3.04716 1.8262 2.73773 2.02056 2.4283 2.31208C2.11886 2.60361 1.91257 2.89514 1.70628 3.28385C1.5 3.67255 1.5 4.06125 1.5 4.44996C1.5 4.83866 1.60314 5.22737 1.70628 5.61607C1.91257 6.00478 2.11886 6.29631 2.4283 6.58784C2.73773 6.87936 3.04716 7.07372 3.45973 7.26807C3.87231 7.46242 4.28488 7.46242 4.69746 7.46242C5.11003 7.46242 5.52261 7.36525 5.93519 7.26807C6.34776 7.07372 6.65719 6.87936 6.96663 6.58784C7.27606 6.29631 7.48234 6.00478 7.68863 5.61607C7.89492 5.22737 7.89491 4.83866 7.89491 4.44996C7.89491 4.06125 7.79177 3.67255 7.68863 3.28385C7.48234 2.89514 7.17291 2.60361 6.96663 2.31208Z" fill="#FF4240"/>
<path id="Vector_6" d="M36.7752 2.31208C36.4658 2.02056 36.1563 1.8262 35.7438 1.63185C35.3312 1.4375 34.9186 1.4375 34.5061 1.4375C34.0935 1.4375 33.6809 1.53468 33.2683 1.63185C32.8558 1.8262 32.5463 2.02056 32.2369 2.31208C31.9275 2.60361 31.7212 2.89514 31.5149 3.28385C31.3086 3.67255 31.3086 4.06125 31.3086 4.44996C31.3086 4.83866 31.4117 5.22737 31.5149 5.61607C31.7212 6.00478 31.9275 6.29631 32.2369 6.58784C32.5463 6.87936 32.8558 7.07372 33.2683 7.26807C33.6809 7.46242 34.0935 7.46242 34.5061 7.46242C34.9186 7.46242 35.3312 7.36525 35.7438 7.26807C36.1563 7.07372 36.4658 6.87936 36.7752 6.58784C37.0846 6.29631 37.2909 6.00478 37.4972 5.61607C37.7035 5.22737 37.7035 4.83866 37.7035 4.44996C37.7035 4.06125 37.6004 3.67255 37.4972 3.28385C37.2909 2.89514 37.0846 2.60361 36.7752 2.31208Z" fill="#FF4240"/>
<path id="Vector_7" d="M37.0853 10.1836H32.0312V27.6753H37.0853V10.1836Z" fill="#FF4240"/>
<path id="Vector_8" d="M17.1777 23.7871L19.1374 22.0379L16.9714 18.6367L11.1953 23.7871L12.2268 27.6741L28.0078 27.7713L26.9763 23.7871H17.1777Z" fill="#FF4240"/>
<path id="Vector_9" d="M28.0073 14.2655L26.9758 10.2812H11.6074L12.742 14.1683L22.0249 14.2655L20.0652 15.9175L22.1281 19.4158L28.0073 14.2655Z" fill="#FF4240"/>
</g>
</g>
</svg>
