<svg width="134" height="49" viewBox="0 0 134 49" fill="none" xmlns="http://www.w3.org/2000/svg">
<g id="Logo_Ripley 1" clip-path="url(#clip0_321_4163)">
<g id="layer1">
<g id="g3490">
<path id="path47961" d="M0 49H134V0H0V49Z" fill="black"/>
<g id="g3458">
<g id="g3426">
<path id="path47963" d="M106.801 48.9993H110.991V36.7793H106.801V48.9993Z" fill="#CFD4D8"/>
<path id="path47965" d="M31.4844 48.9993H41.9598V36.7793H31.4844V48.9993Z" fill="#741472"/>
<path id="path47969" d="M8.37305 48.9993H14.6554V36.7793H8.37305V48.9993Z" fill="#FFD400"/>
<path id="path47971" d="M21.043 48.9993H27.3253V36.7793H21.043V48.9993Z" fill="#F15B5B"/>
<path id="path47973" d="M16.7461 48.9993H21.0562V36.7793H16.7461V48.9993Z" fill="#CFD4D8"/>
<path id="path47975" d="M41.9141 48.9993H46.1023V36.7793H41.9141V48.9993Z" fill="#CE171E"/>
<path id="path47977" d="M0 48.9993H6.27984V36.7793H0V48.9993Z" fill="#CE171E"/>
<path id="path47979" d="M123.57 48.9993H129.855V36.7793H123.57V48.9993Z" fill="#741472"/>
<path id="path47981" d="M46.0918 48.9993H52.3765V36.7793H46.0918V48.9993Z" fill="#CFD4D8"/>
<path id="path47983" d="M52.3594 48.9993H58.6416V36.7793H52.3594V48.9993Z" fill="#CE171E"/>
<path id="path47987" d="M27.3086 48.9993H31.4991V36.7793H27.3086V48.9993Z" fill="#FFD400"/>
<path id="path47989" d="M110.988 48.9993H113.085V36.7793H110.988V48.9993Z" fill="white"/>
<path id="path47991" d="M62.8496 48.9993H69.1148V36.7793H62.8496V48.9993Z" fill="#FFD400"/>
<path id="path47995" d="M69.1152 48.9993H75.4V36.7793H69.1152V48.9993Z" fill="#741472"/>
<path id="path47997" d="M75.3945 48.9993H79.5876V36.7793H75.3945V48.9993Z" fill="#F15B5B"/>
<path id="path47999" d="M79.5781 48.9993H81.6918V36.7793H79.5781V48.9993Z" fill="#CE171E"/>
<path id="path48001" d="M81.6895 48.9993H87.9718V36.7793H81.6895V48.9993Z" fill="#FFD400"/>
<path id="path48003" d="M90.041 48.9993H92.1327V36.7793H90.041V48.9993Z" fill="white"/>
<path id="path48005" d="M60.7344 48.9993H62.8432V36.7793H60.7344V48.9993Z" fill="white"/>
<path id="path48007" d="M14.6406 48.9993H16.7372V36.7793H14.6406V48.9993Z" fill="white"/>
<path id="path48009" d="M96.3242 48.9993H106.802V36.7793H96.3242V48.9993Z" fill="#CE171E"/>
<path id="path48011" d="M92.1328 48.9993H96.3235V36.7793H92.1328V48.9993Z" fill="#741472"/>
<path id="path48013" d="M113.084 48.9993H119.374V36.7793H113.084V48.9993Z" fill="#F15B5B"/>
<path id="path48015" d="M119.373 48.9993H123.576V36.7793H119.373V48.9993Z" fill="#FFD400"/>
<path id="path48017" d="M129.846 48.9993H134V36.7793H129.846V48.9993Z" fill="#CE171E"/>
</g>
<g id="g3453">
<path id="path47967" d="M6.27148 48.9993H8.36548V36.7793H6.27148V48.9993Z" fill="#741472"/>
<path id="path47985" d="M58.6387 48.9993H60.7401V36.7793H58.6387V48.9993Z" fill="#741472"/>
<path id="path47993" d="M87.9609 48.9993H90.0577V36.7793H87.9609V48.9993Z" fill="#CFD4D8"/>
</g>
</g>
<g id="g48031">
<path id="path48033" d="M23.9844 24.6465C23.9844 24.5626 23.8796 24.5363 23.8796 24.5363C22.8386 24.3446 21.8635 23.621 21.1272 22.8542C19.923 21.5987 18.9113 19.9981 18.5188 19.2505C18.3993 18.9845 18.5675 18.9534 18.5675 18.9534C20.5958 18.1699 20.9322 16.15 20.9322 15.5965C20.9322 13.0302 18.4968 12.2731 16.3028 12.2731C15.4715 12.2731 15.196 12.3426 14.3306 12.3426C13.3286 12.3426 12.7241 12.2731 12.568 12.2731C12.4291 12.2731 12.3438 12.3953 12.3438 12.5319C12.3438 13.1501 13.7601 12.103 13.7601 14.1684V22.4133C13.7601 24.3254 12.4144 23.7911 12.4144 24.2559C12.4144 24.4117 12.5827 24.4644 12.6899 24.4644C13.1921 24.4644 13.7601 24.3925 14.5719 24.3925C15.5958 24.3925 15.8518 24.4644 16.4417 24.4644C16.8708 24.4644 16.9415 24.3781 16.9415 24.2559C16.9415 23.6713 15.1278 24.5674 15.1278 22.0851V13.3921C15.1278 12.8769 15.5081 12.8769 16.059 12.8769C18.0483 12.8769 19.6207 13.9743 19.6548 16.0613C19.6767 17.4726 18.6163 18.812 16.8537 18.812C16.2345 18.812 16.371 18.7761 16.2321 18.7761C16.1468 18.7761 16.059 18.812 16.059 18.9318C16.059 19.0924 16.1882 19.169 16.3345 19.2146C16.5319 19.296 16.9756 19.3679 17.4388 20.0795C18.6163 22.0036 19.9449 24.8789 22.9702 24.8789C24.099 24.8789 23.9844 24.7447 23.9844 24.6465ZM120.783 11.8993C120.086 11.8993 119.194 12.1197 118.533 12.6948C117.302 13.773 116.476 15.5701 115.993 16.725C115.844 17.1156 115.691 17.233 115.608 17.233C115.503 17.233 115.401 17.13 115.262 16.9215L113.421 13.9599C113.316 13.8042 113.109 13.531 113.109 13.2555C113.109 12.7547 113.918 12.7379 113.918 12.4456C113.918 12.2899 113.714 12.2731 113.592 12.2731C113.421 12.2731 112.95 12.3426 112.38 12.3426C111.212 12.3426 110.876 12.2731 110.413 12.2731C110.291 12.2731 110.188 12.4121 110.188 12.5319C110.188 12.8242 111.034 12.6181 111.483 13.3585L114.369 17.9542C114.508 18.1627 114.769 18.5053 114.769 18.8312V23.0004C114.769 24.2224 113.438 23.7743 113.438 24.2559C113.438 24.4452 113.543 24.4644 113.694 24.4644C113.852 24.4644 114.474 24.3925 115.249 24.3925C115.891 24.3925 116.895 24.4644 117.151 24.4644C117.397 24.4644 117.551 24.4452 117.551 24.2919C117.551 23.7575 116.132 24.2368 116.132 22.7392V18.6227C116.483 17.5804 117.202 15.8912 118.28 14.5542C119.13 13.4975 120.12 12.678 121.463 12.218C121.554 12.1844 121.632 12.1437 121.632 12.0526C121.632 11.8945 120.783 11.8993 120.783 11.8993ZM92.8872 14.0797C92.8872 12.9272 92.8506 12.9967 94.5132 12.9967C95.208 12.9967 97.0022 12.8913 97.4508 13.4759C97.7287 13.8761 97.4508 14.7003 97.8676 14.7003C97.97 14.7003 98.2089 14.5637 98.2089 12.6517C98.2089 12.4456 98.1772 12.2731 98.0407 12.2731C97.5044 12.2731 95.9125 12.3402 95.5663 12.3402C94.8423 12.3402 93.9427 12.2731 90.676 12.2731C90.1739 12.2731 90.0739 12.3402 90.0739 12.4791C90.0739 12.6852 90.4518 12.7212 90.5883 12.7547C91.5195 12.8913 91.5195 13.7179 91.5195 14.4919V22.3414C91.5195 23.1513 91.4903 23.6353 91.0393 23.8438C90.4859 24.117 90.3128 24.0834 90.2811 24.2919C90.2811 24.4284 90.3835 24.4644 90.5371 24.4644C91.2294 24.4644 91.9559 24.4117 92.6458 24.3925C93.9622 24.3566 95.2762 24.4644 96.5878 24.4644C97.3484 24.4644 97.7287 24.4979 98.2796 23.8773C98.6916 23.4317 99.1451 22.8303 99.1451 22.2073C99.1451 22.1737 99.128 22.0036 99.0085 22.0036C98.7794 22.0036 98.1943 23.7743 94.2011 23.7743C92.7531 23.7743 92.8872 23.3598 92.8872 22.3414V19.181C92.8872 18.9198 92.836 18.6275 93.1992 18.6275H95.7565C97.2094 18.6275 96.6219 20.1394 97.1582 20.1394C97.2801 20.1394 97.3484 20.0724 97.3484 19.919C97.3484 19.4518 97.3118 19.0061 97.3118 18.558C97.3118 18.0045 97.3484 17.4223 97.3484 16.8161C97.3484 16.6819 97.2948 16.4926 97.1582 16.4926C96.7414 16.4926 97.2094 17.8703 95.4128 17.8703H93.5454C92.8506 17.8703 92.8872 17.8703 92.8872 17.2833V14.0797ZM72.5313 22.3414C72.5313 23.3598 72.3899 23.7743 73.8428 23.7743C77.8336 23.7743 78.4235 22.0036 78.6478 22.0036C78.7673 22.0036 78.7868 22.1737 78.7868 22.2073C78.7868 22.8255 78.3406 23.4317 77.9213 23.8773C77.3704 24.4979 76.9925 24.4644 76.227 24.4644C74.9131 24.4644 73.6015 24.3566 72.2875 24.3925C71.5952 24.4117 70.8736 24.4644 70.1788 24.4644C70.0228 24.4644 69.9204 24.4284 69.9204 24.2919C69.9545 24.0834 70.1252 24.117 70.681 23.8438C71.1295 23.6353 71.1637 23.1513 71.1637 22.3414V13.6149C71.1637 12.7212 69.7132 12.8434 69.7132 12.4959C69.7132 12.3066 69.8326 12.2731 70.0593 12.2731C70.4201 12.2731 70.9565 12.3426 71.8024 12.3426C72.7873 12.3426 73.2041 12.2731 73.465 12.2731C73.6844 12.2731 73.7892 12.3066 73.7892 12.5151C73.7892 12.9128 72.5313 12.4791 72.5313 13.9743V22.3414ZM53.4797 13.3921C53.4797 12.8769 53.86 12.8769 54.4158 12.8769C56.4002 12.8769 58.0067 13.9743 58.0067 16.0613C58.0067 17.614 56.9706 18.4526 55.2105 18.4526C54.5864 18.4526 54.2232 18.3496 54.0842 18.3496C53.9989 18.3496 53.9112 18.3879 53.9112 18.5053C53.9112 18.8144 54.9131 18.9007 55.0862 18.9007C58.7698 18.9007 59.2866 16.2841 59.2866 15.5965C59.2866 13.0302 56.8512 12.2731 54.6523 12.2731C53.8258 12.2731 53.5479 12.3402 52.6849 12.3402C51.683 12.3402 51.076 12.2731 50.9199 12.2731C50.7834 12.2731 50.6981 12.3929 50.6981 12.5319C50.6981 13.1501 52.1145 12.103 52.1145 14.1684V22.4133C52.1145 24.3254 50.7639 23.7911 50.7639 24.2559C50.7639 24.4117 50.937 24.4644 51.0418 24.4644C51.544 24.4644 52.1145 24.3925 52.9287 24.3925C53.9453 24.3925 54.2037 24.4644 54.7961 24.4644C55.2251 24.4644 55.2958 24.3781 55.2958 24.2559C55.2958 23.6713 53.4797 24.5674 53.4797 22.0875V13.3921ZM35.6981 13.7539C35.6786 12.4959 34.2964 12.8434 34.2964 12.4648C34.2964 12.3066 34.333 12.2731 34.4695 12.2731C35.1082 12.2731 35.7298 12.3426 36.371 12.3426C36.9049 12.3426 37.4412 12.2731 37.98 12.2731C38.253 12.2731 38.3066 12.3066 38.3066 12.4456C38.3066 12.8601 37.0633 12.4648 37.0633 13.7539V23.0004C37.0633 24.1697 38.5992 23.7743 38.5992 24.2919C38.5992 24.4117 38.548 24.4644 38.253 24.4644C37.8581 24.4644 37.1145 24.3925 36.371 24.3925C35.3178 24.3925 34.9522 24.4644 34.7108 24.4644C34.3988 24.4644 34.35 24.3781 34.35 24.2032C34.35 23.7024 35.6981 24.2775 35.6981 22.5667V13.7539Z" fill="white"/>
</g>
</g>
</g>
</g>
<defs>
<clipPath id="clip0_321_4163">
<rect width="134" height="49" fill="white"/>
</clipPath>
</defs>
</svg>
