<svg width="24" height="24" viewBox="0 0 24 24" fill="none" xmlns="http://www.w3.org/2000/svg">
<g id="menu_book">
<path id="Vector" d="M6.20078 16.6669C7.09361 16.6669 7.96261 16.7711 8.80778 16.9794C9.65311 17.1878 10.4841 17.5003 11.3008 17.9169V7.24194C10.5508 6.74194 9.73728 6.35444 8.86028 6.07944C7.98328 5.80444 7.09678 5.66694 6.20078 5.66694C5.56745 5.66694 4.94661 5.7461 4.33828 5.90444C3.72995 6.06277 3.11745 6.2586 2.50078 6.49194V17.3419C3.01745 17.1086 3.60495 16.9378 4.26328 16.8294C4.92161 16.7211 5.56745 16.6669 6.20078 16.6669ZM12.8008 17.9169C13.6341 17.5003 14.4508 17.1878 15.2508 16.9794C16.0508 16.7711 16.9008 16.6669 17.8008 16.6669C18.4341 16.6669 19.0883 16.7169 19.7633 16.8169C20.4383 16.9169 21.0174 17.0503 21.5008 17.2169V6.49194C20.9341 6.2046 20.3356 5.99527 19.7053 5.86394C19.0749 5.7326 18.4401 5.66694 17.8008 5.66694C16.9008 5.66694 16.0299 5.80444 15.1883 6.07944C14.3466 6.35444 13.5508 6.74194 12.8008 7.24194V17.9169ZM12.0658 20.0412C11.9396 20.0412 11.8161 20.0287 11.6953 20.0037C11.5743 19.9787 11.4681 19.9309 11.3768 19.8604C10.5974 19.3771 9.76937 19.0001 8.89253 18.7294C8.0157 18.4588 7.11845 18.3234 6.20078 18.3234C5.60145 18.3234 5.0127 18.3994 4.43453 18.5514C3.85653 18.7034 3.27986 18.8838 2.70453 19.0924C2.2797 19.2996 1.86661 19.2763 1.46528 19.0224C1.06395 18.7684 0.863281 18.3995 0.863281 17.9157V6.34669C0.863281 6.05685 0.929615 5.79027 1.06228 5.54694C1.19478 5.30344 1.3937 5.1146 1.65903 4.98044C2.36686 4.6491 3.10111 4.40677 3.86178 4.25344C4.62228 4.1001 5.39786 4.02344 6.18853 4.02344C7.2427 4.02344 8.26661 4.1661 9.26028 4.45144C10.2539 4.73677 11.1841 5.17502 12.0508 5.76619C12.9008 5.17885 13.8143 4.7416 14.7913 4.45444C15.7683 4.1671 16.7755 4.02344 17.813 4.02344C18.598 4.02344 19.368 4.1016 20.123 4.25794C20.8782 4.41427 21.6097 4.6551 22.3175 4.98044C22.5829 5.1146 22.7859 5.30344 22.9268 5.54694C23.0678 5.79027 23.1383 6.05685 23.1383 6.34669V17.9814C23.1383 18.4824 22.9299 18.8572 22.513 19.1057C22.0962 19.354 21.6825 19.3496 21.272 19.0924C20.7134 18.8671 20.145 18.6826 19.567 18.5389C18.9892 18.3953 18.4006 18.3234 17.8013 18.3234C16.9003 18.3234 16.0236 18.4598 15.1713 18.7324C14.3188 19.0049 13.5112 19.3809 12.7485 19.8604C12.6612 19.9309 12.5571 19.9787 12.4363 20.0037C12.3153 20.0287 12.1918 20.0412 12.0658 20.0412ZM14.0008 8.95294C14.0008 8.8661 14.0333 8.77619 14.0983 8.68319C14.1634 8.59019 14.2373 8.52644 14.3198 8.49194C14.8198 8.3086 15.3309 8.16694 15.8533 8.06694C16.3754 7.96694 16.9259 7.91694 17.5048 7.91694C17.8664 7.91694 18.2229 7.93785 18.574 7.97969C18.9252 8.02169 19.2674 8.08452 19.6008 8.16819C19.7008 8.19785 19.7924 8.25902 19.8758 8.35169C19.9591 8.44452 20.0008 8.54569 20.0008 8.65519C20.0008 8.84885 19.9383 8.99502 19.8133 9.09369C19.6883 9.19252 19.5341 9.21694 19.3508 9.16694C19.0668 9.0836 18.7708 9.0211 18.4628 8.97944C18.1548 8.93777 17.8341 8.91694 17.5008 8.91694C17.0161 8.91694 16.5501 8.96177 16.1028 9.05144C15.6554 9.1411 15.2162 9.2776 14.785 9.46094C14.55 9.54427 14.3605 9.53877 14.2165 9.44444C14.0727 9.3501 14.0008 9.18627 14.0008 8.95294ZM14.0008 14.4549C14.0008 14.3619 14.0333 14.2664 14.0983 14.1684C14.1634 14.0703 14.2373 14.0031 14.3198 13.9669C14.8198 13.7836 15.3309 13.6461 15.8533 13.5544C16.3754 13.4628 16.9259 13.4169 17.5048 13.4169C17.8664 13.4169 18.2229 13.4379 18.574 13.4797C18.9252 13.5217 19.2674 13.5845 19.6008 13.6682C19.7008 13.6979 19.7924 13.759 19.8758 13.8517C19.9591 13.9445 20.0008 14.0457 20.0008 14.1552C20.0008 14.3489 19.9383 14.495 19.8133 14.5937C19.6883 14.6925 19.5341 14.7169 19.3508 14.6669C19.0668 14.5836 18.7708 14.5211 18.4628 14.4794C18.1548 14.4378 17.8341 14.4169 17.5008 14.4169C17.0161 14.4169 16.5501 14.4576 16.1028 14.5389C15.6554 14.6203 15.2162 14.7526 14.785 14.9359C14.55 15.0193 14.3605 15.0189 14.2165 14.9349C14.0727 14.8509 14.0008 14.6909 14.0008 14.4549ZM14.0008 11.7029C14.0008 11.6161 14.0333 11.5262 14.0983 11.4332C14.1634 11.3402 14.2373 11.2764 14.3198 11.2419C14.8198 11.0586 15.3309 10.9169 15.8533 10.8169C16.3754 10.7169 16.9259 10.6669 17.5048 10.6669C17.8664 10.6669 18.2229 10.6879 18.574 10.7297C18.9252 10.7717 19.2674 10.8345 19.6008 10.9182C19.7008 10.9479 19.7924 11.009 19.8758 11.1017C19.9591 11.1945 20.0008 11.2957 20.0008 11.4052C20.0008 11.5989 19.9383 11.745 19.8133 11.8437C19.6883 11.9425 19.5341 11.9669 19.3508 11.9169C19.0668 11.8336 18.7708 11.7711 18.4628 11.7294C18.1548 11.6878 17.8341 11.6669 17.5008 11.6669C17.0161 11.6669 16.5501 11.7118 16.1028 11.8014C15.6554 11.8911 15.2162 12.0276 14.785 12.2109C14.55 12.2943 14.3605 12.2888 14.2165 12.1944C14.0727 12.1001 14.0008 11.9363 14.0008 11.7029Z" fill="white"/>
</g>
</svg>
