<svg width="72" height="48" viewBox="0 0 72 48" fill="none" xmlns="http://www.w3.org/2000/svg">
<g id="M&#195;&#169;todos de pago">
<path id="Vector" d="M27.4065 24.4999C27.4065 17.536 30.6594 11.3412 35.7236 7.32764C31.9916 4.36894 27.272 2.59961 22.1405 2.59961C10.0451 2.59961 0.240234 12.4045 0.240234 24.4999C0.240234 36.5952 10.0451 46.4001 22.1405 46.4001C27.272 46.4001 31.9916 44.6308 35.7236 41.6721C30.6594 37.6627 27.4065 31.4637 27.4065 24.4999Z" fill="#E9001B"/>
<path id="Vector_2" d="M27.4062 24.5003C27.4062 31.46 30.6591 37.659 35.7234 41.6726C40.7876 37.659 44.0405 31.4642 44.0405 24.5003C44.0405 17.5365 40.7876 11.3417 35.7234 7.32812C30.6591 11.3417 27.4062 17.5407 27.4062 24.5003Z" fill="#FF5F00"/>
<path id="Vector_3" d="M69.7195 36.3472V35.7084H69.459V35.5318H70.1692V35.7084H69.9087V36.3472H69.7195ZM71.0938 36.3472V35.7798L70.9089 36.2673H70.7072L70.5223 35.7798V36.343H70.3289V35.5234H70.6021L70.8038 36.0488L71.0056 35.5234H71.2787V36.3388L71.0938 36.3472Z" fill="#F79E1B"/>
<path id="Vector_4" d="M49.3058 2.59961C44.1743 2.59961 39.4547 4.37314 35.7227 7.32764C40.7869 11.337 44.0398 17.536 44.0398 24.4999C44.0398 31.4637 40.7869 37.6585 35.7227 41.6721C39.4589 44.6308 44.1743 46.4001 49.3058 46.4001C61.4011 46.4001 71.206 36.5952 71.206 24.4999C71.206 12.4087 61.4011 2.60381 49.3058 2.59961Z" fill="#F79E1B"/>
</g>
</svg>
