<svg width="19" height="19" viewBox="0 0 19 19" fill="none" xmlns="http://www.w3.org/2000/svg">
<g id="Interface / Shopping_Cart_02">
<path id="Vector" d="M2.375 2.375H2.58744C2.96252 2.375 3.15038 2.375 3.30336 2.44267C3.43824 2.50233 3.55356 2.59839 3.63672 2.72019C3.73088 2.85812 3.76488 3.04229 3.83275 3.40992L5.5417 12.6667L13.7923 12.6667C14.151 12.6667 14.331 12.6667 14.4796 12.6033C14.6109 12.5473 14.7241 12.4566 14.8082 12.3412C14.9033 12.2108 14.9436 12.0363 15.024 11.6875L15.0247 11.685L16.267 6.30164L16.2672 6.30051C16.3893 5.77137 16.4505 5.50616 16.3833 5.29814C16.3244 5.11561 16.2003 4.96086 16.0357 4.86235C15.8479 4.75 15.5767 4.75 15.0327 4.75H4.35417M14.25 16.625C13.8128 16.625 13.4583 16.2706 13.4583 15.8333C13.4583 15.3961 13.8128 15.0417 14.25 15.0417C14.6872 15.0417 15.0417 15.3961 15.0417 15.8333C15.0417 16.2706 14.6872 16.625 14.25 16.625ZM6.33333 16.625C5.89611 16.625 5.54167 16.2706 5.54167 15.8333C5.54167 15.3961 5.89611 15.0417 6.33333 15.0417C6.77056 15.0417 7.125 15.3961 7.125 15.8333C7.125 16.2706 6.77056 16.625 6.33333 16.625Z" stroke="#008380" stroke-width="2" stroke-linecap="round" stroke-linejoin="round"/>
</g>
</svg>
