<svg width="32" height="28" viewBox="0 0 32 28" fill="none" xmlns="http://www.w3.org/2000/svg">
<path id="Vector" d="M22.0312 13.9498C22.0312 10.5376 19.838 7.52688 16.8474 6.32258V21.4767C19.838 20.3728 22.0312 17.4624 22.0312 13.9498ZM11.1651 21.4767V6.32258C8.17447 7.52688 5.98131 10.4373 5.98131 13.9498C5.98131 17.362 8.07478 20.3728 11.1651 21.4767ZM13.9564 1.10394C6.97819 1.10394 1.29597 6.82437 1.29597 13.9498C1.29597 21.0753 6.97819 26.7957 13.9564 26.7957C20.9346 26.7957 26.6168 21.0753 26.6168 13.9498C26.6168 6.82437 20.9346 1.10394 13.9564 1.10394ZM13.9564 28C6.28037 28 0 21.7778 0 14.1505C0 5.82079 6.28037 0 13.9564 0H17.5452C25.1215 0 32 5.82079 32 14.1505C32 21.7778 25.1215 28 17.5452 28H13.9564Z" fill="#004C94"/>
</svg>
