<svg width="28" height="20" viewBox="0 0 28 20" fill="none" xmlns="http://www.w3.org/2000/svg">
<path id="&#226;&#128;&#156;" d="M28 0V3.50515C26.6667 3.68843 25.5833 4.14662 24.75 4.87973C23.9167 5.61283 23.2778 6.52921 22.8333 7.62887C22.4444 8.72852 22.25 9.91982 22.25 11.2028H27.4167V20H16.8333V11.9588C16.8333 9.25544 17.3611 7.10195 18.4167 5.49828C19.4722 3.8488 20.8333 2.58878 22.5 1.71822C24.2222 0.847654 26.0556 0.274916 28 0ZM11.1667 0V3.50515C9.83333 3.68843 8.75 4.14662 7.91667 4.87973C7.08333 5.61283 6.44444 6.52921 6 7.62887C5.61111 8.72852 5.41667 9.91982 5.41667 11.2028H10.5833V20H0V11.9588C0 9.25544 0.527778 7.10195 1.58333 5.49828C2.63889 3.8488 4 2.58878 5.66667 1.71822C7.38889 0.847654 9.22222 0.274916 11.1667 0Z" fill="white"/>
</svg>
