<svg width="20" height="20" viewBox="0 0 20 20" fill="none" xmlns="http://www.w3.org/2000/svg">
<g id="&#240;&#159;&#167;&#177; BDS Icons / &#240;&#159;&#167;&#177; speaker">
<path id="Vector" d="M14.166 1.66602H5.83268C4.91602 1.66602 4.16602 2.41602 4.16602 3.33268V16.666C4.16602 17.5827 4.91602 18.3243 5.83268 18.3243L14.166 18.3327C15.0827 18.3327 15.8327 17.5827 15.8327 16.666V3.33268C15.8327 2.41602 15.0827 1.66602 14.166 1.66602ZM5.83268 16.666V3.33268H14.166V16.666H5.83268ZM9.99935 7.49935C10.916 7.49935 11.666 6.74935 11.666 5.83268C11.666 4.91602 10.916 4.16602 9.99935 4.16602C9.07435 4.16602 8.33268 4.91602 8.33268 5.83268C8.33268 6.74935 9.07435 7.49935 9.99935 7.49935ZM9.99935 9.16602C8.15768 9.16602 6.66602 10.6577 6.66602 12.4993C6.66602 14.341 8.15768 15.8327 9.99935 15.8327C11.841 15.8327 13.3327 14.341 13.3327 12.4993C13.3327 10.6577 11.841 9.16602 9.99935 9.16602ZM9.99935 14.166C9.08268 14.166 8.33268 13.416 8.33268 12.4993C8.33268 11.5827 9.08268 10.8327 9.99935 10.8327C10.916 10.8327 11.666 11.5827 11.666 12.4993C11.666 13.416 10.916 14.166 9.99935 14.166Z" fill="#006462"/>
</g>
</svg>
