<svg width="20" height="20" viewBox="0 0 20 20" fill="none" xmlns="http://www.w3.org/2000/svg">
<g id="&#240;&#159;&#167;&#177; BDS Icons / &#240;&#159;&#167;&#177; app_shortcut">
<g id="Vector">
<path d="M12.6426 15.0007H4.30924V5.00065H12.6426V5.83398H14.3092V2.50065C14.3092 1.58398 13.5592 0.833984 12.6426 0.833984H4.30924C3.39258 0.833984 2.64258 1.58398 2.64258 2.50065V17.5007C2.64258 18.4173 3.39258 19.1673 4.30924 19.1673H12.6426C13.5592 19.1673 14.3092 18.4173 14.3092 17.5007V14.1673H12.6426V15.0007Z" fill="#006462"/>
<path d="M15.4592 8.01732L15.7926 8.74232C15.8676 8.90898 16.1009 8.90898 16.1759 8.74232L16.5092 8.01732L17.2342 7.68398C17.4009 7.60898 17.4009 7.37565 17.2342 7.30065L16.5092 6.96732L16.1759 6.24232C16.1009 6.07565 15.8676 6.07565 15.7926 6.24232L15.4592 6.96732L14.7342 7.30065C14.5676 7.37565 14.5676 7.60898 14.7342 7.68398L15.4592 8.01732Z" fill="#006462"/>
<path d="M11.4259 7.50065L10.7676 8.95898L9.30924 9.61732C8.98424 9.76732 8.98424 10.2257 9.30924 10.3757L10.7676 11.034L11.4259 12.5007C11.5759 12.8257 12.0342 12.8257 12.1842 12.5007L12.8426 11.0423L14.3092 10.384C14.6342 10.234 14.6342 9.77565 14.3092 9.62565L12.8509 8.96732L12.1926 7.50065C12.0426 7.17565 11.5759 7.17565 11.4259 7.50065Z" fill="#006462"/>
<path d="M15.7842 11.2507L15.4509 11.9757L14.7259 12.309C14.5592 12.384 14.5592 12.6173 14.7259 12.6923L15.4509 13.0257L15.7842 13.7507C15.8592 13.9173 16.0926 13.9173 16.1676 13.7507L16.5009 13.0257L17.2259 12.6923C17.3926 12.6173 17.3926 12.384 17.2259 12.309L16.5009 11.9757L16.1676 11.2507C16.0926 11.0923 15.8592 11.0923 15.7842 11.2507Z" fill="#006462"/>
</g>
</g>
</svg>
