<svg width="200" height="93" viewBox="0 0 200 93" fill="none" xmlns="http://www.w3.org/2000/svg">
<g id="Clip path group">
<mask id="mask0_357_91264" style="mask-type:luminance" maskUnits="userSpaceOnUse" x="0" y="-14" width="200" height="120">
<g id="c">
<path id="Vector" d="M200 -14H0V106H200V-14Z" fill="white"/>
</g>
</mask>
<g mask="url(#mask0_357_91264)">
<g id="Group">
<path id="Vector_2" d="M200 -14H0V106H200V-14Z" fill="white"/>
<path id="Vector_3" fill-rule="evenodd" clip-rule="evenodd" d="M160.721 32.5814C159.463 32.5814 158.26 32.8282 157.153 33.267L139.19 39.7522L121.5 36.2697H112.806C112.833 31.1966 110.947 23.4363 90.099 27.3028C79.4223 29.2086 78.5474 33.9388 80.8304 38.4908L35.95 35.351C35.2938 35.2139 33.2979 35.1591 33.2979 35.1591C28.0348 35.4881 23.8516 40.0264 23.8516 45.5931C23.8516 50.8443 27.5836 55.1907 32.4367 55.9311L32.2726 59.7975L69.6616 60.6613L67.5426 92.5391L131.985 91.881L125.369 54.9576L159.135 53.3808L158.985 51.9001C159.545 51.996 160.119 52.0509 160.707 52.0509C166.066 52.0509 170.413 47.6908 170.413 42.3162C170.441 36.9415 166.093 32.5814 160.721 32.5814Z" fill="#FF4240"/>
<path id="Vector_4" fill-rule="evenodd" clip-rule="evenodd" d="M89.9626 37.1191L87.0781 38.2983C87.0781 38.2983 96.3877 43.1382 96.9619 62.6077C98.0418 75.1257 97.7411 92.1957 97.7411 92.1957L104.112 92.1272C104.112 92.1272 102.431 55.8893 105.233 49.6097C108.036 43.3302 106.655 40.4509 105.26 39.1346C103.852 37.8184 89.9626 37.1191 89.9626 37.1191Z" fill="white"/>
<path id="Vector_5" fill-rule="evenodd" clip-rule="evenodd" d="M89.7042 29.3184V36.2561C89.6769 37.3941 90.1553 38.4772 91.0303 39.2176C92.6707 40.6024 96.2387 43.1115 100.012 47.4304C100.012 47.4304 105.904 43.0841 105.289 36.3109L89.7042 29.3184Z" fill="white"/>
<path id="Vector_6" fill-rule="evenodd" clip-rule="evenodd" d="M89.2942 29.318V36.2557C89.2644 37.4911 89.7809 38.6718 90.7154 39.4883L90.7774 39.5412C91.0116 39.7344 93.4743 41.6983 94.4554 42.5365C96.3276 44.136 98.0421 45.7995 99.7034 47.7012C99.8437 47.8618 100.083 47.888 100.255 47.7615L100.314 47.7167C100.355 47.6847 100.408 47.6426 100.472 47.5905L100.5 47.5676C100.689 47.4129 100.898 47.2305 101.123 47.0211C101.763 46.4245 102.402 45.7291 102.999 44.9405C104.932 42.389 105.988 39.4755 105.697 36.2733C105.684 36.1251 105.592 35.9959 105.456 35.9351L89.8718 28.9426C89.6005 28.8208 89.2942 29.0199 89.2942 29.318ZM90.1143 29.9525L104.899 36.5861L104.903 36.6476C105.083 39.505 104.103 42.123 102.346 44.4428C101.779 45.1915 101.171 45.8524 100.564 46.4183L100.494 46.4831C100.355 46.6108 100.224 46.7268 100.101 46.8308L100.061 46.8643L99.9816 46.7752C98.4542 45.0632 96.8781 43.5385 95.1768 42.0727L94.8918 41.829C93.8218 40.923 91.4221 39.0103 91.2943 38.9024C90.5189 38.2462 90.0897 37.2842 90.1142 36.2655L90.1143 29.9525Z" fill="#00413F"/>
<path id="Vector_7" fill-rule="evenodd" clip-rule="evenodd" d="M112.847 35.7898V36.256C112.847 37.2021 112.765 38.0521 112.737 38.724C112.532 43.3857 110.29 45.8673 109.402 47.7183C114.829 46.7174 120.448 40.8217 121.555 36.256C120.434 35.2277 114.829 34.7067 112.847 35.7898Z" fill="#00413F"/>
<path id="Vector_8" fill-rule="evenodd" clip-rule="evenodd" d="M89.4711 48.747C87.8716 48.0067 82.4991 43.4272 80.4622 37.5727C78.6987 36.6129 74.2148 37.1202 72.793 37.9429C78.3706 49.5149 89.4711 48.7608 89.4711 48.747Z" fill="#00413F"/>
<path id="Vector_9" fill-rule="evenodd" clip-rule="evenodd" d="M91.6236 47.4866C91.9169 47.4144 92.213 47.5944 92.285 47.8885L92.3705 48.2438L92.5352 48.9438C92.5677 49.0833 92.6011 49.2279 92.6354 49.3774L92.6876 49.6051C92.989 50.9264 93.2904 52.3192 93.5719 53.7201C93.7466 54.59 93.9082 55.4362 94.0539 56.2506L94.0971 56.4939C94.5404 59.0068 94.8091 61.0884 94.8569 62.604C94.8664 62.9068 94.6294 63.1599 94.3276 63.1695C94.0257 63.1791 93.7733 62.9414 93.7638 62.6387L93.758 62.4809C93.7001 61.0679 93.4491 59.1354 93.0433 56.8167L93.0202 56.6851C92.865 55.8054 92.6904 54.8855 92.4998 53.9367C92.2419 52.653 91.9669 51.3752 91.6906 50.1539L91.5697 49.6236C91.5271 49.4382 91.4859 49.2602 91.4463 49.0903L91.2833 48.4002L91.2229 48.15C91.1509 47.8558 91.3303 47.5588 91.6236 47.4866Z" fill="#00413F"/>
<path id="Vector_10" fill-rule="evenodd" clip-rule="evenodd" d="M107.811 47.1002C108.106 47.1636 108.294 47.4551 108.231 47.7513L108.158 48.1023L108.074 48.5171C108.045 48.6635 108.015 48.818 107.983 48.9801L107.964 49.0782C107.764 50.1162 107.564 51.234 107.377 52.3886C107.154 53.7633 106.965 55.0978 106.822 56.3567L106.793 56.6155C106.52 59.1018 106.445 61.1345 106.612 62.544C106.648 62.8448 106.434 63.1176 106.134 63.1533C105.834 63.1891 105.562 62.9742 105.526 62.6734C105.341 61.1111 105.43 58.9142 105.735 56.2322C105.881 54.9548 106.072 53.6035 106.297 52.2127C106.486 51.0465 106.688 49.918 106.891 48.8697L106.966 48.4838C106.996 48.3292 107.026 48.1825 107.054 48.0442L107.161 47.5216C107.225 47.2254 107.515 47.0367 107.811 47.1002Z" fill="#00413F"/>
<path id="Vector_11" fill-rule="evenodd" clip-rule="evenodd" d="M88.6647 24.4238C88.6647 24.4238 84.7959 24.5061 85.4794 27.9749C86.1766 31.4575 90.4555 29.442 90.4555 29.442L89.8814 24.4924L88.6647 24.4238Z" fill="white"/>
<path id="Vector_12" fill-rule="evenodd" clip-rule="evenodd" d="M88.6884 24.0143L88.6713 24.0137L88.6496 24.0139L88.6028 24.0158C88.5518 24.0184 88.4887 24.0229 88.4145 24.0301C88.2641 24.0448 88.1017 24.0673 87.9311 24.0996C87.4528 24.1899 86.9892 24.3396 86.57 24.5649C85.3493 25.2208 84.7477 26.3804 85.0778 28.0558C85.4004 29.6671 86.4497 30.414 87.9148 30.4342C88.5254 30.4426 89.1678 30.3255 89.8063 30.1259C89.9897 30.0686 90.1617 30.0078 90.3194 29.9463L90.4588 29.8903C90.5363 29.8583 90.5943 29.8325 90.6306 29.8155C90.7901 29.7403 90.884 29.5713 90.8636 29.3956L90.2894 24.446C90.2664 24.2473 90.1042 24.0941 89.9051 24.0829L88.6884 24.0143ZM88.6599 24.8367L89.5143 24.8848L90.0129 29.183L89.9503 29.2071C89.8292 29.2527 89.6992 29.2977 89.562 29.3406C88.9994 29.5164 88.4382 29.6188 87.9258 29.6117C86.8241 29.5965 86.1226 29.0973 85.882 27.8952C85.6246 26.5889 86.0437 25.7809 86.957 25.2902C87.2948 25.1087 87.6808 24.984 88.0827 24.9081C88.318 24.8637 88.5144 24.8431 88.6458 24.8373L88.6599 24.8367Z" fill="#00413F"/>
<path id="Vector_13" fill-rule="evenodd" clip-rule="evenodd" d="M99.6955 13.47C100.721 13.3878 107.707 12.949 108.472 18.8036C109.238 24.6581 108.418 31.1159 107.761 34.0638C107.105 37.0116 93.7215 35.6542 92.9696 35.38C92.2177 35.1058 91.3154 34.2283 91.3154 34.2283L89.4836 25.234C89.4699 25.2477 88.7317 14.3887 99.6955 13.47Z" fill="white"/>
<path id="Vector_14" fill-rule="evenodd" clip-rule="evenodd" d="M99.6627 13.058C94.7072 13.4732 91.6325 15.8684 90.0948 19.5403C89.5592 20.8193 89.2522 22.1639 89.1234 23.4889C89.0781 23.9547 89.0585 24.3864 89.0586 24.7682C89.0586 24.8863 89.0606 24.9934 89.064 25.0855L89.0686 25.1859L89.0725 25.2448L89.076 25.2799L89.0798 25.3053L90.9136 34.3086C90.9301 34.3897 90.9706 34.4639 91.0299 34.5215L91.0733 34.5629C91.1181 34.6051 91.1795 34.6613 91.2548 34.7278C91.4267 34.8793 91.6114 35.0308 91.8027 35.173C92.0233 35.337 92.2391 35.4782 92.4472 35.5902C92.5787 35.661 92.706 35.7195 92.8294 35.7645C93.4442 35.9888 97.408 36.3351 100.401 36.3394L100.673 36.3391C105.076 36.322 107.812 35.7222 108.162 34.1513C109.095 29.9597 109.533 23.7476 108.879 18.748C108.518 15.9855 106.841 14.3037 104.303 13.5155C103.389 13.2316 102.411 13.0803 101.412 13.0325C100.741 13.0004 100.176 13.0168 99.6627 13.058ZM101.373 13.8543C102.307 13.899 103.218 14.04 104.06 14.3014C106.314 15.0014 107.75 16.4416 108.066 18.8551C108.706 23.7512 108.275 29.8686 107.361 33.9722C107.14 34.9674 104.473 35.5228 100.402 35.5169L100.139 35.5156C97.2738 35.4923 93.5894 35.1664 93.1097 34.9915C93.0259 34.9609 92.9338 34.9186 92.8351 34.8655C92.6656 34.7742 92.482 34.654 92.291 34.5121C92.1196 34.3847 91.9522 34.2474 91.7964 34.11L91.7338 34.0542L91.6909 34.0153L89.8892 25.1685L89.8852 25.0941L89.8823 25.0123C89.8801 24.9401 89.8789 24.8579 89.8788 24.768C89.8787 24.4122 89.8972 24.0072 89.9398 23.5688C90.0611 22.3209 90.35 21.0554 90.8511 19.8589C92.2741 16.4608 95.0906 14.2667 99.7296 13.878C100.209 13.8395 100.741 13.8241 101.373 13.8543Z" fill="#00413F"/>
<path id="Vector_15" fill-rule="evenodd" clip-rule="evenodd" d="M90.783 25.1641C91.4392 25.8085 93.189 29.5241 93.6265 31.2654C93.6265 31.2654 97.9737 29.812 104.207 29.7161C104.207 29.7161 107.598 29.7846 108.965 30.1822C108.965 30.1822 108.678 36.3247 105.916 39.5056C103.168 42.6866 97.3449 41.7954 94.6108 39.8895C91.8767 37.9837 91.4255 37.0651 90.7967 35.0222C90.1678 32.9793 88.5 25.356 88.5 25.356L90.783 25.1641Z" fill="#DFF5F4"/>
<path id="Vector_16" fill-rule="evenodd" clip-rule="evenodd" d="M88.9909 26.4805C88.9909 26.4805 87.1727 23.656 86.4755 20.7219C85.8194 17.966 87.0907 15.073 89.6471 13.8253C91.7797 12.7833 93.3655 13.606 93.3655 13.606C93.3655 13.606 91.0962 9.73951 94.5001 6.3255C95.7032 5.11894 97.3436 4.46082 99.0388 4.51566C103.181 4.63906 104.466 8.14904 104.466 8.14904C104.466 8.14904 108.909 -0.036351 118 4.8173C118.916 5.31089 119.955 6.66827 120.447 7.5869C123.454 13.1398 113.543 19.721 108.389 20.242C102.73 20.8179 99.4079 19.8718 97.5897 18.487C98.9431 19.2823 97.4256 27.783 88.9909 26.4805Z" fill="#00413F"/>
<path id="Vector_17" fill-rule="evenodd" clip-rule="evenodd" d="M99.9249 33.425C100.214 33.3783 100.487 33.5682 100.547 33.8524L100.555 33.897C100.561 33.9228 100.572 33.9662 100.589 34.0218C100.626 34.1444 100.678 34.2667 100.744 34.377C100.94 34.7036 101.199 34.8535 101.627 34.7901L101.668 34.7836C101.966 34.7316 102.249 34.9313 102.301 35.2297C102.353 35.5281 102.153 35.8121 101.856 35.8642C100.923 36.0273 100.226 35.6429 99.806 34.9417C99.6906 34.7489 99.6049 34.5464 99.5429 34.3442C99.505 34.2208 99.4827 34.1207 99.4719 34.0537C99.4239 33.7546 99.6267 33.4732 99.9249 33.425Z" fill="#00413F"/>
<path id="Vector_18" fill-rule="evenodd" clip-rule="evenodd" d="M104.106 26.8122C104.397 26.7786 104.66 26.9804 104.707 27.2671L104.711 27.2942L105.327 32.6414C105.37 33.0148 105.035 33.3171 104.673 33.2414L104.648 33.2357L102.775 32.7558C102.483 32.6808 102.306 32.3821 102.381 32.0887C102.453 31.8044 102.734 31.6293 103.018 31.6868L103.045 31.6931L104.149 31.9757L103.624 27.4199C103.591 27.1281 103.793 26.8635 104.079 26.816L104.106 26.8122Z" fill="#00413F"/>
<path id="Vector_19" fill-rule="evenodd" clip-rule="evenodd" d="M106.082 27.919C106.384 27.919 106.629 27.5383 106.629 27.0688C106.629 26.5993 106.384 26.2188 106.082 26.2188C105.78 26.2188 105.535 26.5993 105.535 27.0688C105.535 27.5383 105.78 27.919 106.082 27.919Z" fill="#00413F"/>
<path id="Vector_20" fill-rule="evenodd" clip-rule="evenodd" d="M100.817 27.8232C101.119 27.8232 101.364 27.4426 101.364 26.9731C101.364 26.5036 101.119 26.123 100.817 26.123C100.515 26.123 100.27 26.5036 100.27 26.9731C100.27 27.4426 100.515 27.8232 100.817 27.8232Z" fill="#00413F"/>
<path id="Vector_21" fill-rule="evenodd" clip-rule="evenodd" d="M98.6798 22.5119C99.3016 22.0557 100.067 21.8288 100.953 21.9613C101.252 22.006 101.458 22.2851 101.414 22.5847C101.369 22.8842 101.091 23.0909 100.792 23.0462C100.21 22.9592 99.7276 23.1021 99.3255 23.3972C99.2123 23.4802 99.1151 23.5691 99.035 23.6566C99.0148 23.6785 98.9973 23.6989 98.9822 23.7172L98.9571 23.7488C98.7849 23.9977 98.4441 24.0594 98.1961 23.8866C97.948 23.7139 97.8864 23.3722 98.0586 23.1234C98.0931 23.0737 98.1498 23.0016 98.2295 22.9147C98.356 22.7764 98.5059 22.6395 98.6798 22.5119Z" fill="#00413F"/>
<path id="Vector_22" fill-rule="evenodd" clip-rule="evenodd" d="M105.97 21.8366C106.311 21.7828 106.672 21.7807 107.026 21.868C107.645 22.0203 108.119 22.4251 108.325 23.0973C108.414 23.3868 108.252 23.6937 107.963 23.7827C107.675 23.8718 107.369 23.7093 107.28 23.4198C107.194 23.1386 107.029 22.9981 106.766 22.9333C106.573 22.8858 106.349 22.8871 106.14 22.9201C106.119 22.9234 106.1 22.9269 106.082 22.9303L106.041 22.9391C105.748 23.0157 105.45 22.8402 105.373 22.5471C105.297 22.2541 105.472 21.9544 105.764 21.8779L105.803 21.8684C105.846 21.8585 105.902 21.8473 105.97 21.8366Z" fill="#00413F"/>
<path id="Vector_23" fill-rule="evenodd" clip-rule="evenodd" d="M182.281 49.2137L184.933 45.882C184.933 45.882 185.876 41.33 186.532 39.7395C187.188 38.149 189.581 36.8739 188.829 39.1773C188.063 41.4808 188.337 42.4405 188.337 42.4405C188.337 42.4405 191.754 38.7934 193.19 36.0376C194.653 33.2131 195.609 35.9964 195.609 35.9964C195.609 35.9964 197.496 35.2149 197.359 36.5037C197.359 36.5037 199.15 36.4763 198.275 38.0393C198.275 38.0393 200.298 37.1207 199.875 38.9031C200.039 40.9872 196.361 47.3079 192.848 49.0629L191.454 51.0098L189.772 53.5875" fill="white"/>
<path id="Vector_24" fill-rule="evenodd" clip-rule="evenodd" d="M194.465 34.3595C194.958 34.3532 195.343 34.6681 195.656 35.1625C195.721 35.2645 195.779 35.3702 195.832 35.4771L195.836 35.4844L195.84 35.483C196.021 35.4309 196.2 35.3914 196.373 35.3692L196.448 35.3608C197.116 35.2946 197.632 35.5282 197.751 36.0979L197.757 36.1274L197.801 36.1353C197.868 36.1483 197.935 36.1643 198.001 36.1837L198.067 36.2042C198.638 36.394 198.963 36.801 198.923 37.3711L198.919 37.4191L198.991 37.4086L199.064 37.4003C199.958 37.3123 200.513 37.8354 200.293 38.9083L200.287 38.9357L200.288 38.9526C200.331 40.1049 199.472 42.1742 198.133 44.254L198.084 44.3301C196.607 46.6041 194.835 48.4727 193.175 49.356L193.123 49.3829L191.792 51.2419L190.115 53.8119C189.996 53.995 189.756 54.0511 189.569 53.944L189.548 53.9309C189.365 53.8111 189.309 53.5703 189.416 53.3829L189.429 53.3615L191.11 50.7839L191.121 50.7691L192.515 48.8221C192.554 48.7678 192.605 48.7238 192.665 48.6939C194.211 47.9215 195.95 46.1092 197.397 43.8811L197.488 43.739C198.743 41.7732 199.536 39.826 199.466 38.9347C199.462 38.8919 199.466 38.8487 199.476 38.8069L199.491 38.7405C199.6 38.2498 199.515 38.1825 199.144 38.219C199.014 38.2318 198.867 38.265 198.716 38.3126C198.644 38.3354 198.576 38.3599 198.514 38.3842L198.444 38.4133C198.084 38.5771 197.724 38.1836 197.918 37.8372L197.955 37.7687C198.227 37.2592 198.146 37.0972 197.809 36.9851C197.717 36.9547 197.615 36.9344 197.51 36.9232C197.472 36.9191 197.437 36.9165 197.405 36.9152L197.366 36.9142C197.119 36.918 196.925 36.7049 196.951 36.4594C196.98 36.1926 196.9 36.1426 196.528 36.1795C196.387 36.1935 196.229 36.2268 196.068 36.2735C196.008 36.2908 195.951 36.309 195.897 36.3274L195.845 36.3458C195.819 36.3554 195.798 36.3633 195.783 36.369L195.766 36.3758C195.555 36.4631 195.316 36.3611 195.23 36.1525L195.208 36.0926C195.196 36.0621 195.179 36.0204 195.157 35.9705C195.102 35.8445 195.037 35.7188 194.964 35.6038C194.788 35.3259 194.61 35.1803 194.475 35.1821C194.261 35.1848 193.939 35.4819 193.553 36.2272C193.277 36.7579 192.92 37.3385 192.494 37.9618C192.165 38.4426 191.798 38.9436 191.399 39.4595C190.794 40.2417 190.147 41.02 189.501 41.7592C189.35 41.9317 189.206 42.0938 189.071 42.2442L188.836 42.5037L188.636 42.7214C188.418 42.9541 188.03 42.8598 187.942 42.5528C187.931 42.5131 187.918 42.4515 187.907 42.3672C187.81 41.6584 187.935 40.5664 188.439 39.0486C188.519 38.8037 188.559 38.6068 188.563 38.4623C188.565 38.4109 188.562 38.3733 188.558 38.3479L188.555 38.3321L188.541 38.3326C188.503 38.3352 188.45 38.3471 188.386 38.37L188.358 38.3806C187.835 38.5852 187.179 39.2469 186.911 39.896C186.78 40.2137 186.627 40.6818 186.458 41.2743L186.436 41.3523C186.327 41.7387 186.213 42.1706 186.096 42.6399C185.913 43.3668 185.731 44.1465 185.559 44.9262L185.493 45.2248C185.465 45.3535 185.438 45.4767 185.413 45.5936L185.334 45.9649C185.323 46.0176 185.302 46.0675 185.272 46.1119L185.253 46.1378L182.601 49.4696C182.46 49.6471 182.202 49.6761 182.025 49.5344C181.855 49.3981 181.821 49.1536 181.945 48.9771L181.96 48.9563L184.551 45.701L184.65 45.2391C184.684 45.084 184.72 44.9197 184.758 44.7477C184.932 43.9611 185.116 43.1744 185.3 42.4393L185.365 42.1831C185.462 41.8043 185.556 41.4514 185.647 41.1283L185.693 40.9667C185.861 40.3847 186.014 39.9182 186.153 39.5814C186.505 38.7286 187.325 37.9019 188.059 37.6143C188.522 37.4332 188.955 37.4702 189.212 37.8287C189.447 38.1564 189.433 38.6469 189.218 39.3066C188.946 40.1249 188.795 40.7942 188.732 41.3246L188.723 41.3994L188.884 41.2165C189.521 40.4891 190.157 39.7232 190.751 38.9555C191.14 38.4515 191.498 37.9631 191.818 37.4963C192.203 36.9334 192.526 36.4101 192.779 35.9356L192.826 35.8472C193.336 34.8618 193.871 34.367 194.465 34.3595Z" fill="#00413F"/>
<path id="Vector_25" fill-rule="evenodd" clip-rule="evenodd" d="M191.441 41.7409C191.441 41.7409 195.009 38.2309 195.597 36.0098L191.441 41.7409Z" fill="white"/>
<path id="Vector_26" fill-rule="evenodd" clip-rule="evenodd" d="M195.2 35.9035C195.258 35.684 195.483 35.5532 195.702 35.6115C195.921 35.6698 196.051 35.895 195.993 36.1146C195.832 36.7232 195.472 37.4264 194.946 38.2137C194.638 38.6734 194.279 39.1543 193.878 39.6496C193.408 40.2301 192.905 40.8006 192.402 41.3373L192.209 41.5411C192.147 41.6065 192.087 41.6693 192.029 41.7292L191.885 41.8762L191.728 42.0339C191.566 42.1929 191.307 42.1904 191.148 42.0282C190.996 41.8726 190.992 41.6263 191.135 41.4661L191.331 41.2685L191.441 41.1556C191.554 41.039 191.675 40.9114 191.804 40.774C192.294 40.2507 192.785 39.6947 193.241 39.1309C193.628 38.6539 193.972 38.1926 194.264 37.7556C194.745 37.0372 195.067 36.4079 195.2 35.9035Z" fill="#00413F"/>
<path id="Vector_27" fill-rule="evenodd" clip-rule="evenodd" d="M192.836 42.852C193.165 42.3858 196.145 39.7945 197.061 36.4902L192.836 42.852Z" fill="white"/>
<path id="Vector_28" fill-rule="evenodd" clip-rule="evenodd" d="M193.155 43.1094C193.02 43.2774 192.777 43.3134 192.599 43.1875C192.414 43.0565 192.37 42.7998 192.5 42.6142L192.522 42.5844C192.565 42.5283 192.622 42.4622 192.711 42.3666L193.223 41.8263C193.261 41.7851 193.299 41.7451 193.337 41.7045C193.858 41.1464 194.307 40.6236 194.739 40.0518C195.655 38.8384 196.322 37.6148 196.664 36.3794C196.725 36.1605 196.951 36.0324 197.169 36.0933C197.388 36.1541 197.515 36.3809 197.455 36.5997C197.091 37.9114 196.405 39.188 195.471 40.4439L195.393 40.5485C194.686 41.4848 193.17 43.1126 193.168 43.0924L193.17 43.089L193.155 43.1094Z" fill="#00413F"/>
<path id="Vector_29" fill-rule="evenodd" clip-rule="evenodd" d="M194.258 44.0304C194.969 43.0706 197.115 41.9463 198.346 38.1621L194.258 44.0304Z" fill="white"/>
<path id="Vector_30" fill-rule="evenodd" clip-rule="evenodd" d="M194.964 42.7321L195.047 42.6533C195.553 42.1708 195.926 41.7676 196.303 41.2712C196.982 40.3765 197.534 39.3295 197.955 38.0339C198.026 37.8179 198.257 37.6999 198.472 37.7704C198.688 37.8408 198.805 38.073 198.735 38.2889C198.285 39.6731 197.69 40.8022 196.956 41.7695C196.549 42.3055 196.148 42.7381 195.614 43.2476L194.847 43.9755C194.664 44.153 194.677 44.1529 194.587 44.275C194.452 44.4573 194.195 44.4953 194.013 44.3599C193.831 44.2244 193.794 43.9668 193.929 43.7844C194.026 43.6526 194.145 43.5197 194.3 43.363L194.402 43.263L194.964 42.7321Z" fill="#00413F"/>
<path id="Vector_31" fill-rule="evenodd" clip-rule="evenodd" d="M110.934 73.9193L122.225 50.2269C123.456 47.0734 125.247 43.8376 128.528 43.0287C136.169 41.1366 148.309 39.5324 157.4 39.2445C159.888 39.1622 162.266 40.2728 163.798 42.2335L175.349 55.8758L183.551 45.6201L193.353 51.8996L179.286 71.2731C176.648 73.9604 172.383 74.1524 169.525 71.7119L163.784 66.2823L165.875 92.1274H130.168L130.318 85.5873L110.934 73.9193Z" fill="#006462"/>
<path id="Vector_32" fill-rule="evenodd" clip-rule="evenodd" d="M149.021 40.3019L145.917 32.3359L136.457 38.3824L137.305 44.3329C140.832 54.287 149.704 42.0569 149.021 40.3019Z" fill="white"/>
<path id="Vector_33" fill-rule="evenodd" clip-rule="evenodd" d="M145.697 31.9884L136.237 38.0349C136.101 38.1217 136.028 38.2801 136.051 38.44L136.899 44.3905C136.902 44.4176 136.909 44.4443 136.918 44.4701C137.791 46.9342 139.06 48.2815 140.65 48.5541C142.008 48.7869 143.496 48.2147 144.995 47.0309C147.511 45.0434 149.87 41.3518 149.402 40.1517L146.299 32.1856C146.205 31.9443 145.914 31.8492 145.697 31.9884ZM136.9 38.5861L145.716 32.9511L148.638 40.451C148.674 40.5428 148.629 40.8351 148.475 41.2398C148.3 41.6979 148.007 42.2573 147.629 42.8495C146.789 44.1636 145.65 45.4663 144.488 46.3846C143.153 47.4383 141.875 47.9296 140.788 47.7432L140.744 47.7352C139.537 47.5069 138.515 46.4315 137.747 44.3506L137.705 44.2327L136.9 38.5861Z" fill="#00413F"/>
<path id="Vector_34" fill-rule="evenodd" clip-rule="evenodd" d="M130.674 18.2674C130.674 18.2674 139.19 22.5041 135.786 27.6457C135.786 27.6457 134.255 29.812 132.793 29.5652C132.793 29.5652 133.668 27.7691 132.369 27.0287C132.369 27.0287 132.506 32.1154 128.281 31.5121C128.281 31.5121 129.566 29.1264 128.897 26.4802C127.475 20.9685 128.432 17.4859 130.674 18.2674Z" fill="#00413F"/>
<path id="Vector_35" fill-rule="evenodd" clip-rule="evenodd" d="M148.078 24.5756C148.078 24.5756 148.625 14.5529 138.509 13.8537C137.566 13.7851 131.113 13.4697 130.484 18.8718C130.06 22.4778 130.293 26.3306 130.689 29.3058C130.689 29.3195 131.345 34.9273 133.861 37.8203C136.376 40.7133 141.257 39.9317 143.69 38.1356C146.123 36.3395 146.52 35.4893 147.067 33.5972C147.613 31.7052 148.078 24.5893 148.078 24.5893V24.5756Z" fill="white"/>
<path id="Vector_36" fill-rule="evenodd" clip-rule="evenodd" d="M130.052 19.0065C129.702 22.1574 129.809 25.7212 130.253 29.1563L130.277 29.3388L130.28 29.3888C130.318 29.8241 130.582 31.2814 130.916 32.527L130.933 32.5891C131.545 34.849 132.399 36.7663 133.548 38.0885C134.807 39.5367 136.687 40.2129 138.816 40.1454C140.682 40.0863 142.604 39.4432 143.93 38.4648L144.14 38.3081C146.266 36.7135 146.835 35.8615 147.457 33.7097C147.674 32.9601 147.885 31.4439 148.093 29.3608C148.187 28.4086 148.276 27.3947 148.355 26.3757L148.396 25.8425C148.409 25.6752 148.421 25.5139 148.432 25.3592L148.484 24.6141L148.487 24.516C148.502 24.0122 148.471 23.3331 148.357 22.5401C148.185 21.3331 147.854 20.1383 147.327 19.0179C145.815 15.8022 142.974 13.7481 138.534 13.4412C138.079 13.4082 137.54 13.3988 136.917 13.4365C135.995 13.4923 135.092 13.6441 134.249 13.9179C131.907 14.6787 130.372 16.2589 130.073 18.8221L130.052 19.0065ZM138.476 14.2618C142.613 14.5478 145.197 16.4159 146.585 19.3688C147.075 20.4092 147.384 21.5262 147.545 22.657C147.644 23.3429 147.676 23.935 147.67 24.3833L147.667 24.5094L147.665 24.572L147.622 25.1855C147.611 25.336 147.6 25.4934 147.588 25.6569L147.559 26.0346C147.481 27.0488 147.395 28.0628 147.302 29.0196L147.276 29.279C147.078 31.2757 146.873 32.7505 146.679 33.4476L146.669 33.4807C146.078 35.5272 145.599 36.2114 143.443 37.8023C142.254 38.68 140.493 39.2692 138.79 39.3232C136.89 39.3834 135.249 38.793 134.167 37.5479C133.115 36.3381 132.307 34.5238 131.724 32.3733L131.679 32.2054C131.36 30.9835 131.111 29.5815 131.097 29.3242L131.096 29.3037C131.096 29.2855 131.095 29.2673 131.092 29.2493C130.635 25.8142 130.518 22.2375 130.867 19.0981L130.888 18.9175C131.146 16.7045 132.443 15.3693 134.502 14.7005C135.272 14.4501 136.109 14.3096 136.967 14.2577C137.549 14.2224 138.053 14.2311 138.476 14.2618Z" fill="#00413F"/>
<path id="Vector_37" fill-rule="evenodd" clip-rule="evenodd" d="M134.151 26.6732C134.174 26.4471 134.375 26.2822 134.6 26.3048C134.817 26.3266 134.978 26.5148 134.969 26.7309L134.967 26.755L134.534 31.0975L135.683 30.7867C135.893 30.7297 136.11 30.8483 136.178 31.0535L136.185 31.0767C136.242 31.2882 136.124 31.5057 135.919 31.574L135.896 31.581L134.174 32.0471C133.904 32.1201 133.645 31.908 133.657 31.6328L133.659 31.6091L134.151 26.6732Z" fill="#00413F"/>
<path id="Vector_38" fill-rule="evenodd" clip-rule="evenodd" d="M133.624 25.8325C133.633 25.401 133.413 25.0467 133.134 25.0411C132.855 25.0356 132.622 25.3809 132.613 25.8125C132.605 26.244 132.824 26.5983 133.103 26.6038C133.383 26.6094 133.616 26.264 133.624 25.8325Z" fill="#00413F"/>
<path id="Vector_39" fill-rule="evenodd" clip-rule="evenodd" d="M138.052 26.7645C138.328 26.7176 138.492 26.3346 138.42 25.9091C138.348 25.4835 138.067 25.1766 137.791 25.2235C137.516 25.2705 137.351 25.6535 137.423 26.079C137.495 26.5046 137.777 26.8115 138.052 26.7645Z" fill="#00413F"/>
<path id="Vector_40" fill-rule="evenodd" clip-rule="evenodd" d="M137.232 21.7038C138.04 21.5246 138.754 21.696 139.345 22.0891C139.494 22.1882 139.624 22.2945 139.734 22.4017L139.783 22.4497C139.827 22.4954 139.861 22.5335 139.883 22.5615C140.025 22.7389 139.996 22.9977 139.819 23.1396C139.649 23.2761 139.404 23.2547 139.259 23.0952L139.233 23.0638C139.22 23.049 139.197 23.0247 139.165 22.9936C139.088 22.9196 138.997 22.8447 138.891 22.7747C138.475 22.4977 137.984 22.3797 137.409 22.5071C137.188 22.5561 136.969 22.4161 136.92 22.1943C136.871 21.9725 137.011 21.7529 137.232 21.7038Z" fill="#00413F"/>
<path id="Vector_41" fill-rule="evenodd" clip-rule="evenodd" d="M131.505 21.6226C131.889 21.5763 132.287 21.6094 132.675 21.6917L132.752 21.7086C132.874 21.7367 132.97 21.764 133.032 21.7847C133.247 21.8566 133.363 22.0895 133.291 22.305C133.222 22.5128 133.004 22.6286 132.795 22.5721L132.723 22.5503L132.707 22.5458C132.648 22.5292 132.58 22.5123 132.506 22.4965C132.198 22.4314 131.885 22.4054 131.603 22.4394C131.224 22.4852 130.954 22.6324 130.795 22.9038C130.681 23.0998 130.43 23.1657 130.234 23.0509C130.039 22.9362 129.973 22.6842 130.087 22.4882C130.39 21.97 130.891 21.6968 131.505 21.6226Z" fill="#00413F"/>
<path id="Vector_42" fill-rule="evenodd" clip-rule="evenodd" d="M139.534 18.0068C139.534 18.0068 137.087 31.6079 146 32.0878C146 32.0878 151.195 32.4854 152.179 30.5522C152.179 30.5522 148.283 28.948 148.543 26.7817C148.543 26.7817 153.164 30.9361 156.458 27.289C156.458 27.289 150.32 26.8914 150.306 21.3796C150.293 17.4309 140.573 14.6887 139.534 18.0068Z" fill="#00413F"/>
<path id="Vector_43" fill-rule="evenodd" clip-rule="evenodd" d="M155.747 18.2543L150.334 17.9801C149.418 14.429 146.807 9.47934 139.356 9.35594C127.709 9.16399 128.475 20.4481 128.475 20.4481L155.57 21.7643C156.54 21.8191 157.361 21.065 157.402 20.1053C157.456 19.1318 156.718 18.3092 155.747 18.2543Z" fill="#9BE4E2"/>
<path id="Vector_44" fill-rule="evenodd" clip-rule="evenodd" d="M139.045 31.8541C139.114 31.6375 139.344 31.5172 139.56 31.5856C139.776 31.6539 139.896 31.8849 139.828 32.1016C139.804 32.1769 139.757 32.2912 139.681 32.4316C139.559 32.6582 139.398 32.8836 139.19 33.0936C138.551 33.7417 137.629 34.1023 136.406 34.0338C136.18 34.0212 136.007 33.827 136.02 33.6002C136.032 33.3734 136.226 33.1998 136.452 33.2125C137.438 33.2677 138.132 32.9964 138.607 32.5149C138.757 32.3634 138.873 32.2013 138.96 32.0406C139.005 31.9569 139.032 31.8944 139.043 31.8627L139.045 31.8541Z" fill="#00413F"/>
<path id="Vector_45" fill-rule="evenodd" clip-rule="evenodd" d="M129.251 64.2871C129.331 64.0743 129.567 63.9661 129.779 64.0456C129.984 64.1223 130.091 64.3454 130.028 64.552L130.02 64.5749L123.294 82.6322C123.215 82.845 122.978 82.953 122.766 82.8735C122.562 82.7968 122.454 82.5739 122.518 82.3672L122.526 82.3442L129.251 64.2871Z" fill="white"/>
<path id="Vector_46" fill-rule="evenodd" clip-rule="evenodd" d="M174.601 55.8632C174.798 55.7502 175.048 55.8183 175.161 56.0153C175.269 56.2051 175.21 56.4452 175.031 56.5637L174.955 56.6095C174.94 56.619 174.923 56.6302 174.903 56.6431C174.811 56.7026 174.707 56.7738 174.595 56.8565C174.274 57.0939 173.953 57.3739 173.654 57.6934C172.632 58.7844 172.124 60.0413 172.379 61.4528C172.419 61.6764 172.271 61.8904 172.048 61.9309C171.826 61.9713 171.612 61.8229 171.572 61.5994C171.264 59.897 171.872 58.3948 173.056 57.1302C173.391 56.772 173.75 56.4598 174.109 56.1944L174.188 56.1365C174.368 56.0068 174.51 55.9154 174.601 55.8632Z" fill="white"/>
<path id="Vector_47" fill-rule="evenodd" clip-rule="evenodd" d="M171.503 55.644C172.373 55.2531 173.287 55.2379 174.137 55.4429C174.336 55.4911 174.486 55.5406 174.575 55.5766C174.785 55.6617 174.887 55.9014 174.802 56.112C174.72 56.3151 174.495 56.4171 174.29 56.3478L174.223 56.3231C174.214 56.32 174.204 56.3165 174.192 56.3127C174.121 56.2891 174.038 56.2652 173.945 56.2427C173.256 56.0766 172.519 56.0889 171.839 56.3946C170.987 56.7777 170.306 57.5921 169.863 58.964C169.793 59.1801 169.562 59.2986 169.346 59.2286C169.131 59.1586 169.013 58.9267 169.083 58.7106C169.594 57.126 170.43 56.1265 171.503 55.644Z" fill="white"/>
<path id="Vector_48" fill-rule="evenodd" clip-rule="evenodd" d="M134.597 87.3022H116.853C116.415 87.3022 115.991 87.0965 115.732 86.7263L103.387 69.8208C102.717 68.9022 103.373 67.5996 104.508 67.5996H122.252C122.69 67.5996 123.114 67.8053 123.373 68.1755L135.718 85.081C136.388 86.0133 135.732 87.3022 134.597 87.3022Z" fill="#00413F"/>
<path id="Vector_49" fill-rule="evenodd" clip-rule="evenodd" d="M117.604 77.0176C117.604 77.0176 113.558 80.3219 113.489 80.3767C113.421 80.4316 117.85 85.2715 117.85 85.2715L122.457 80.5138L117.604 77.0176Z" fill="white"/>
<path id="Vector_50" fill-rule="evenodd" clip-rule="evenodd" d="M118.973 77.9921C119.656 77.7453 121.802 76.4153 122.418 76.6484C123.689 77.142 121.816 78.4308 120.463 79.6099" fill="white"/>
<path id="Vector_51" fill-rule="evenodd" clip-rule="evenodd" d="M120.495 76.7919L120.617 76.734C121.57 76.2821 122.147 76.1054 122.566 76.2642C123.362 76.5732 123.436 77.2254 122.935 77.8973L122.902 77.9411C122.624 78.3033 122.286 78.6122 121.427 79.3315L121.027 79.6671C120.915 79.7616 120.822 79.8411 120.732 79.9199C120.561 80.0689 120.302 80.0506 120.153 79.8791C120.005 79.7076 120.023 79.4478 120.194 79.2989L120.389 79.131C120.458 79.0721 120.533 79.0088 120.619 78.9367L121.085 78.5463C121.752 77.9836 122.041 77.7135 122.251 77.4411L122.314 77.3566C122.487 77.1225 122.474 77.1108 122.273 77.0326C122.156 76.9884 121.614 77.1654 120.85 77.5335L120.725 77.5942L120.461 77.7258C120.259 77.8279 119.827 78.0476 119.734 78.0945L119.547 78.1869C119.36 78.2774 119.224 78.338 119.112 78.3785C118.898 78.4555 118.664 78.3446 118.587 78.1308C118.513 77.9247 118.613 77.6982 118.811 77.6133L118.874 77.5892C118.967 77.5525 119.098 77.492 119.28 77.4021L120.159 76.9574L120.299 76.8879C120.367 76.8543 120.432 76.8225 120.495 76.7919Z" fill="#00413F"/>
<path id="Vector_52" fill-rule="evenodd" clip-rule="evenodd" d="M120.655 82.283C120.655 82.283 123.061 80.3909 123.799 82.0499C124.1 82.7354 121.475 84.8332 118.987 85.5873C116.609 86.3003 108.871 88.9602 108.844 81.6797C108.844 80.4869 109.117 78.8964 109.965 76.1542C111.058 72.6854 112.972 74.1524 112.808 75.4138C112.644 76.6752 112.74 79.0746 112.74 79.0746C112.74 79.0746 116.636 75.9348 118.987 75.88C121.872 75.7977 119.589 77.9229 114.941 80.7611" fill="white"/>
<path id="Vector_53" fill-rule="evenodd" clip-rule="evenodd" d="M109.574 76.0306C110.116 74.3099 110.968 73.4584 111.92 73.6038C112.724 73.7267 113.307 74.5866 113.22 75.4273L113.201 75.5777C113.163 75.9199 113.139 76.3609 113.129 76.8757C113.12 77.2944 113.12 77.7362 113.127 78.1751L113.129 78.2622L113.154 78.2437C113.62 77.9014 114.117 77.5592 114.628 77.2351L114.799 77.1277C115.408 76.7493 115.999 76.4211 116.562 76.1578C117.48 75.7287 118.29 75.4851 118.976 75.4691C119.83 75.4448 120.37 75.5923 120.59 76.0211C120.813 76.456 120.602 76.9379 120.093 77.5019C119.289 78.3911 117.583 79.6293 115.154 81.1127C114.961 81.2308 114.708 81.1694 114.59 80.9754C114.473 80.7813 114.534 80.5283 114.727 80.4101L115.008 80.2379C117.224 78.8703 118.779 77.7303 119.485 76.9495C119.657 76.7585 119.771 76.597 119.825 76.4748C119.837 76.4455 119.846 76.4214 119.85 76.4027L119.852 76.3925C119.837 76.385 119.804 76.3701 119.745 76.3528L119.725 76.3469C119.562 76.3027 119.319 76.2823 118.997 76.2915C118.444 76.3044 117.733 76.5181 116.909 76.9034C116.378 77.1516 115.814 77.4644 115.231 77.8268C114.679 78.1703 114.141 78.539 113.638 78.9077L113.51 79.0026C113.426 79.0646 113.347 79.1241 113.273 79.1807L113.137 79.2853L112.997 79.3956C112.734 79.6071 112.343 79.4288 112.33 79.0914L112.322 78.8636C112.32 78.7919 112.318 78.7146 112.316 78.6325C112.301 78.0422 112.297 77.4311 112.309 76.8585L112.313 76.6724C112.327 76.1537 112.356 75.7106 112.401 75.3609C112.457 74.9323 112.151 74.4712 111.796 74.4171C111.341 74.3476 110.791 74.8971 110.356 76.2763L110.258 76.5976C109.545 78.9521 109.254 80.4914 109.254 81.6785C109.267 85.1624 111.05 86.433 114.231 86.2168C115.151 86.1543 116.125 85.9695 117.202 85.6819L117.337 85.6455C117.541 85.5897 117.744 85.5321 117.961 85.468L118.869 85.1939C119.986 84.8552 121.222 84.2002 122.192 83.465C122.632 83.1312 122.985 82.8037 123.204 82.5296C123.302 82.4055 123.368 82.299 123.398 82.2201L123.407 82.1933L123.41 82.1851L123.395 82.1562C123.216 81.8108 122.926 81.7163 122.467 81.816L122.428 81.825C122.16 81.8885 121.862 82.0147 121.555 82.1856C121.388 82.2788 121.229 82.379 121.084 82.479L121.013 82.5291L120.919 82.5982L120.908 82.607C120.73 82.7471 120.472 82.7159 120.332 82.5371C120.193 82.3583 120.224 82.0999 120.402 81.9597L120.468 81.9095C120.508 81.8798 120.559 81.8435 120.619 81.8019C120.784 81.6876 120.965 81.5734 121.157 81.4665C121.524 81.2618 121.888 81.1075 122.239 81.0243C123.096 80.8215 123.812 81.0696 124.175 81.8845C124.438 82.4843 123.816 83.2652 122.686 84.1214C121.672 84.8902 120.396 85.5732 119.209 85.9494L118.42 86.1894L118.192 86.2573C117.97 86.3229 117.762 86.382 117.552 86.4393C116.374 86.7608 115.307 86.9682 114.287 87.0375C112.672 87.1473 111.324 86.8926 110.308 86.1685C109.091 85.3017 108.442 83.8183 108.434 81.68V81.5643C108.453 80.243 108.79 78.5673 109.574 76.0306Z" fill="#00413F"/>
<path id="Vector_54" fill-rule="evenodd" clip-rule="evenodd" d="M117.102 82.0513C117.102 82.0513 119.111 80.7899 120.465 79.6107L120.834 79.2542C120.834 79.2542 122.884 77.7735 123.978 78.5687C125.071 79.3639 122.57 81.4754 119.726 83.1618" fill="white"/>
<path id="Vector_55" fill-rule="evenodd" clip-rule="evenodd" d="M122.658 77.9758C123.256 77.859 123.789 77.926 124.215 78.2354C124.639 78.5443 124.745 79.0171 124.555 79.5283C124.409 79.921 124.088 80.3513 123.613 80.8231C122.777 81.6528 121.453 82.6132 119.931 83.5156C119.736 83.6312 119.485 83.5664 119.369 83.3709C119.254 83.1754 119.319 82.9231 119.514 82.8075C120.982 81.9366 122.256 81.0133 123.036 80.2384C123.785 79.4948 123.948 79.0575 123.733 78.9014C123.518 78.745 123.21 78.7062 122.814 78.7833C122.497 78.8453 122.146 78.978 121.786 79.1608C121.601 79.2552 121.424 79.3567 121.264 79.458L121.201 79.4989C121.18 79.5121 121.161 79.5247 121.143 79.5369L121.091 79.5724L120.745 79.9067L120.729 79.9209C120.645 79.9941 120.558 80.0686 120.467 80.1442C120.211 80.357 119.93 80.578 119.627 80.8053C119.121 81.1856 118.58 81.5655 118.039 81.9275L117.832 82.0651C117.765 82.1093 117.7 82.1518 117.638 82.1925L117.395 82.3491L117.315 82.3996C117.123 82.5201 116.87 82.4617 116.75 82.2692C116.634 82.0837 116.684 81.8415 116.859 81.7162L116.886 81.6985L117.072 81.5796L117.208 81.4911C117.326 81.4146 117.451 81.3317 117.584 81.2431C118.113 80.8889 118.643 80.5173 119.136 80.1469C119.428 79.9273 119.699 79.7146 119.943 79.511C120.001 79.4632 120.057 79.4159 120.111 79.3693L120.185 79.3053L120.545 78.9576C120.552 78.9509 120.559 78.9443 120.567 78.9381L120.59 78.9201L120.641 78.8844C120.687 78.8524 120.75 78.8109 120.827 78.7623C121.007 78.6479 121.205 78.5337 121.416 78.4268C121.838 78.2125 122.256 78.0542 122.658 77.9758Z" fill="#00413F"/>
<path id="Vector_56" fill-rule="evenodd" clip-rule="evenodd" d="M40.1904 62.2241L28.7891 51.7352C28.7891 51.7352 31.988 45.1951 41.2703 40.6706C46.3558 38.1889 67.094 43.2208 70.744 44.7564C74.3804 46.292 79.1651 60.3457 79.1651 60.3457L72.8903 62.5257C72.8903 62.5257 69.8828 69.4497 70.1425 70.4917C70.6347 72.5209 71.2635 92.3469 71.2635 92.3469H38.4816L40.1904 62.2241Z" fill="#006462"/>
<path id="Vector_57" fill-rule="evenodd" clip-rule="evenodd" d="M69.4262 50.8592C69.599 50.7124 69.8578 50.7338 70.0042 50.9071L70.0509 50.964C70.0795 50.9996 70.1157 51.0456 70.1589 51.1021C70.2767 51.2559 70.4073 51.4364 70.5476 51.6425C70.9462 52.2285 71.3442 52.9045 71.7153 53.6625C72.6657 55.6034 73.2791 57.739 73.394 60.0189C73.5401 62.9174 72.8641 65.852 71.2096 68.7622C71.0974 68.9595 70.847 69.0283 70.6502 68.9158C70.4534 68.8032 70.3849 68.552 70.4971 68.3547C72.0731 65.5826 72.7131 62.804 72.5748 60.0604C72.466 57.9005 71.8832 55.8715 70.9791 54.0251C70.6258 53.3037 70.2476 52.6611 69.8701 52.1062L69.7839 51.9812C69.6993 51.8598 69.6194 51.7498 69.545 51.6513L69.4655 51.5476L69.3785 51.439C69.232 51.2656 69.2534 51.0061 69.4262 50.8592Z" fill="white"/>
<path id="Vector_58" fill-rule="evenodd" clip-rule="evenodd" d="M46.9785 57.1806C47.1281 57.01 47.3873 56.9935 47.5573 57.1435C47.7208 57.2879 47.7424 57.5337 47.6108 57.704L47.5942 57.7241L42.2764 63.7843C42.1242 63.9577 41.8613 63.9704 41.6933 63.8175L41.6743 63.7991L39.8425 61.907C39.6847 61.744 39.6885 61.4836 39.851 61.3253C40.007 61.1734 40.2525 61.1709 40.4115 61.3151L40.4309 61.3339L41.9536 62.9068L46.9785 57.1806Z" fill="white"/>
<path id="Vector_59" fill-rule="evenodd" clip-rule="evenodd" d="M42.4309 85.4512C42.4309 85.4512 40.3256 88.6047 36.8807 89.5233C34.8301 90.0717 32.1096 90.7162 31.6175 90.2637C30.6879 89.4136 33.6407 88.1385 34.0782 87.9054" fill="white"/>
<path id="Vector_60" fill-rule="evenodd" clip-rule="evenodd" d="M42.6611 85.1086C42.8493 85.235 42.8997 85.4905 42.7737 85.6793L42.7441 85.7226C42.7164 85.7622 42.678 85.8158 42.629 85.8818C42.5145 86.0361 42.3794 86.2072 42.2245 86.391C41.7833 86.9145 41.2693 87.4375 40.6862 87.9263C39.5682 88.8633 38.332 89.5617 36.9884 89.92L36.508 90.0472C33.5363 90.8252 31.8998 91.0786 31.3432 90.5669C30.9102 90.1709 30.9435 89.6555 31.3145 89.1944C31.5767 88.8685 32.0079 88.5495 32.5816 88.2174C32.8035 88.089 33.0332 87.9663 33.2869 87.8384L33.8534 87.5589C33.8698 87.5507 33.8818 87.5446 33.8878 87.5414C34.0878 87.4349 34.3361 87.5111 34.4424 87.7117C34.5487 87.9123 34.4727 88.1613 34.2726 88.2679L34.2292 88.2901C34.1101 88.3498 33.8203 88.491 33.7613 88.5204C33.4775 88.6614 33.2281 88.793 32.9916 88.9299C32.4989 89.2151 32.1354 89.484 31.9528 89.7111L31.9218 89.7503C31.8286 89.8714 31.8328 89.9013 31.8966 89.9597C31.9824 90.0385 32.6406 90.0286 33.5968 89.8628C34.4549 89.7139 35.5048 89.4654 36.7773 89.125C37.9947 88.8004 39.128 88.1601 40.1602 87.295C40.7047 86.8386 41.1859 86.3491 41.5981 85.86C41.7239 85.7107 41.835 85.5711 41.931 85.444L42.0122 85.3347C42.025 85.3171 42.037 85.3004 42.0481 85.2847L42.0921 85.2216C42.2182 85.0328 42.4729 84.9823 42.6611 85.1086Z" fill="#00413F"/>
<path id="Vector_61" fill-rule="evenodd" clip-rule="evenodd" d="M34.4357 86.1499C31.6059 85.7523 29.4733 86.9862 30.6216 87.9597C31.0454 88.3299 37.4022 88.7549 39.1657 88.138C40.5328 87.6718 40.9019 87.2193 43.0755 85.4095L41.0112 84.2715L38.6872 84.957L34.4357 86.1499Z" fill="white"/>
<path id="Vector_62" fill-rule="evenodd" clip-rule="evenodd" d="M30.8825 87.6431L30.8749 87.6353C30.8731 87.6328 30.8744 87.6324 30.878 87.6333L30.8955 87.6389C30.942 87.6543 31.0062 87.6712 31.0859 87.6887L31.121 87.6963C31.3097 87.736 31.5639 87.776 31.8689 87.8139L31.935 87.822C32.59 87.9009 33.4257 87.9655 34.2887 88.003L34.5877 88.0149C36.572 88.0864 38.2671 88.0008 38.9998 87.7595L39.0714 87.735C39.5134 87.5821 39.8351 87.4333 40.1553 87.2337L40.2236 87.1905C40.4752 87.0282 40.7439 86.8243 41.1282 86.5077L41.3851 86.2932C41.764 85.9746 42.5058 85.3481 42.8122 85.0929C42.9865 84.9478 43.2451 84.9719 43.3897 85.1466C43.5344 85.3214 43.5104 85.5808 43.3362 85.7259L41.7035 87.0983L41.5879 87.1935C41.1754 87.5313 40.8824 87.7492 40.5881 87.9326C40.235 88.1526 39.8804 88.32 39.4254 88.4823L39.2995 88.5262L39.2478 88.5435C37.4944 89.1063 31.0015 88.838 30.3556 88.2738C29.5408 87.583 29.8403 86.6906 30.8491 86.1742C31.7365 85.72 33.0879 85.5452 34.4913 85.7424C34.7156 85.7739 34.872 85.9819 34.8406 86.2068C34.8091 86.4318 34.6018 86.5886 34.3775 86.5571C33.1316 86.3821 31.9486 86.535 31.222 86.9069C30.6822 87.1832 30.6021 87.394 30.872 87.6341L30.8825 87.6431Z" fill="#00413F"/>
<path id="Vector_63" fill-rule="evenodd" clip-rule="evenodd" d="M42.7311 85.8352C43.5514 84.8343 44.0708 83.9568 44.3306 83.1615C44.3306 83.1615 44.8637 81.5574 44.6587 80.7896C43.6607 77.0602 42.3483 69.8208 37.632 63.4727L39.3135 61.4024L29.6074 52.4766C28.4044 54.259 27.2561 55.9454 26.2991 57.3714C24.6587 59.7845 24.809 62.9791 26.6682 65.2277L37.8234 78.7055L37.1125 80.9404C36.0599 81.434 33.3668 82.8325 33.3668 82.8325C30.455 83.8745 32.0271 84.7383 33.3941 84.656C34.7612 84.5738 36.8255 83.614 37.1125 83.3946C37.1125 83.3946 34.187 84.8891 32.4099 84.6149C31.2479 84.6423 30.496 85.794 30.5507 86.1505C30.6054 86.507 31.8904 86.4659 33.7496 86.5893C35.6088 86.7127 37.4133 85.6432 37.4133 85.6432" fill="white"/>
<path id="Vector_64" fill-rule="evenodd" clip-rule="evenodd" d="M43.6466 78.4514L43.5261 77.9738C43.2498 76.8859 43.0031 75.9777 42.7263 75.0502C41.9157 72.3349 40.9657 69.9002 39.7422 67.5946C39.0163 66.2269 38.2071 64.9342 37.3033 63.7177C37.1967 63.5741 37.1954 63.379 37.2973 63.2345L37.3142 63.2122L38.7514 61.4426L29.6803 53.1009L26.6382 57.6023C25.1162 59.8411 25.2389 62.797 26.9322 64.9007L26.984 64.9642L38.1391 78.442C38.2225 78.5427 38.2528 78.6768 38.2219 78.8028L38.2143 78.8297L37.5034 81.0646C37.4687 81.1739 37.39 81.2636 37.2864 81.3122L37.0475 81.4261C36.7689 81.5606 36.4086 81.7394 35.9822 81.9543L35.5605 82.1676L34.9775 82.4647C34.8456 82.5322 34.7126 82.6003 34.5791 82.6689L33.5555 83.197C33.5391 83.2055 33.5222 83.2129 33.5048 83.2191L33.3792 83.265C32.8067 83.4788 32.4244 83.6862 32.231 83.8679C32.1858 83.9105 32.1581 83.9445 32.1438 83.9679L32.1416 83.9717L32.1429 83.9734C32.1896 84.0237 32.3092 84.0913 32.4828 84.1458L32.5183 84.1566C32.6341 84.1903 32.7621 84.2154 32.8951 84.2309L32.9414 84.2357L33.0018 84.2343C33.28 84.2248 33.5909 84.1836 33.9288 84.1127L34.0072 84.0958C34.4835 83.9907 34.9942 83.8325 35.5196 83.6355C35.8759 83.5019 36.2175 83.3585 36.5317 83.2153L36.6376 83.1665C36.6715 83.1507 36.7042 83.1354 36.7354 83.1205L36.8809 83.0502C36.9016 83.0399 36.917 83.0322 36.9266 83.0273C37.3718 82.7998 37.7587 83.4173 37.3613 83.721C36.791 84.1568 34.6111 84.9941 33.4189 85.0658C33.2748 85.0745 33.1305 85.0745 32.9888 85.0661L32.8933 85.059L32.8291 85.0589C32.685 85.057 32.5464 85.0476 32.4136 85.0301L32.3893 85.0265L32.3726 85.0272C31.997 85.0492 31.643 85.2263 31.3537 85.5096L31.3179 85.5456C31.1904 85.6768 31.0865 85.8204 31.0199 85.9508L31.0066 85.9774L31.0229 85.9812C31.0406 85.985 31.0596 85.9889 31.0798 85.9926L31.1111 85.9983C31.335 86.0369 31.6347 86.062 32.1813 86.0912L32.9937 86.1323C33.2821 86.1473 33.5299 86.1617 33.7768 86.178C34.5604 86.23 35.4058 86.0577 36.2418 85.7363C36.5006 85.6368 36.7389 85.5302 36.9506 85.424L37.0344 85.3812C37.0608 85.3674 37.0859 85.3541 37.1094 85.3414L37.2048 85.2883C37.3998 85.1727 37.6513 85.2376 37.7665 85.4332C37.8818 85.6287 37.8171 85.881 37.6221 85.9965L37.57 86.0265C37.5097 86.0604 37.4248 86.1059 37.3177 86.1596C37.083 86.2774 36.8204 86.3949 36.5353 86.5045C35.5979 86.8649 34.6413 87.0599 33.7227 86.9989L33.3949 86.9784C33.283 86.9718 33.1674 86.9653 33.0447 86.9588L32.0777 86.9094C31.5548 86.8809 31.2505 86.8551 30.9996 86.8137L30.9719 86.809C30.4898 86.7257 30.2023 86.5827 30.1455 86.2123C30.0594 85.651 30.6386 84.8724 31.4202 84.4688L31.4694 84.444L31.4625 84.4349C31.4556 84.4253 31.449 84.4155 31.4425 84.4057L31.4239 84.3759C31.207 84.0114 31.3133 83.6031 31.6702 83.2676C31.9651 82.9905 32.4559 82.727 33.156 82.4708L33.2025 82.4538L33.8029 82.1436L34.2054 81.9366C34.4063 81.8334 34.6061 81.7311 34.8026 81.6309L35.4862 81.2837C35.8997 81.0748 36.2568 80.8967 36.546 80.7556L36.7761 80.6441L37.3645 78.7941L26.3527 65.4895C24.3965 63.1235 24.2204 59.7712 25.9074 57.218L28.0047 54.1124C28.6225 53.1992 29.1585 52.4074 29.268 52.2452C29.4035 52.0444 29.6802 52.0055 29.8653 52.1558L29.8847 52.1726L39.5908 61.0984C39.7445 61.2397 39.7671 61.4729 39.6474 61.6407L39.6316 61.6614L38.1506 63.4847L38.2239 63.5856C39.0044 64.6702 39.7138 65.8113 40.3592 67.0081L40.4662 67.2081C41.7177 69.5665 42.687 72.0504 43.512 74.8142L43.5878 75.0701C43.8256 75.8797 44.0443 76.687 44.2829 77.6213L44.4817 78.4096L44.8485 79.8839C44.9277 80.1978 44.9923 80.448 45.055 80.6823C45.1368 80.9886 45.1326 81.3744 45.0667 81.8333C45.0318 82.0758 44.9803 82.3312 44.9166 82.5922C44.8739 82.7672 44.8282 82.9346 44.7824 83.0889L44.7423 83.2209C44.7334 83.2493 44.726 83.2722 44.7205 83.2888C44.4405 84.1459 43.8907 85.0675 43.0481 86.0956C42.9043 86.271 42.6459 86.2964 42.4709 86.1521C42.2959 86.0079 42.2706 85.7487 42.4145 85.5732C43.1749 84.6453 43.6677 83.8292 43.92 83.0952L43.9559 82.9864L43.9855 82.8905C43.989 82.8788 43.9926 82.8668 43.9963 82.8544C44.0384 82.7123 44.0806 82.5578 44.1199 82.3966C44.1777 82.1597 44.2241 81.9297 44.2548 81.7159C44.3063 81.3579 44.3094 81.0701 44.2627 80.8954L44.2049 80.677C44.146 80.4521 44.0827 80.2035 44.0059 79.8966L43.6466 78.4514Z" fill="#00413F"/>
<path id="Vector_65" fill-rule="evenodd" clip-rule="evenodd" d="M57.6592 82.0651L62.9634 82.2159L67.502 60.8269C67.5977 60.347 67.9805 60.018 68.4316 60.0317L101.965 60.539C102.581 60.5527 103.032 61.1971 102.895 61.8552L98.6435 84.6701C98.3428 86.0824 96.5656 87.1792 95.2942 87.1518C87.0509 87.0147 62.3346 86.5485 61.364 86.5348C56.8937 86.4526 57.6592 82.0651 57.6592 82.0651Z" fill="#00413F"/>
<path id="Vector_66" fill-rule="evenodd" clip-rule="evenodd" d="M89.6777 83.1342C89.6777 83.1342 92.6442 81.3243 93.2731 82.8051C93.9019 84.2859 88.7891 86.5756 88.7891 86.5756" fill="white"/>
<path id="Vector_67" fill-rule="evenodd" clip-rule="evenodd" d="M91.4311 81.9292C92.4786 81.6584 93.3014 81.8217 93.6503 82.6433C93.8856 83.1972 93.6447 83.7736 93.0797 84.3603C92.6538 84.8026 92.0353 85.2598 91.271 85.7262C90.7641 86.0355 90.2228 86.3307 89.6816 86.6023L89.5228 86.6814C89.4192 86.7324 89.3204 86.7803 89.2272 86.8246L89.0439 86.9106L88.9563 86.9506C88.7495 87.0432 88.507 86.9502 88.4146 86.7427C88.3223 86.5353 88.4151 86.2921 88.6219 86.1994L88.7009 86.1633L88.8097 86.1125C88.9618 86.0409 89.1316 85.9585 89.3145 85.8667C89.8369 85.6045 90.359 85.3197 90.8447 85.0234C91.5542 84.5904 92.1218 84.1708 92.4897 83.7888C92.8505 83.414 92.9674 83.1345 92.8957 82.9657C92.7514 82.626 92.3388 82.5441 91.6359 82.7258C91.3521 82.7992 91.045 82.912 90.7281 83.0536C90.5153 83.1486 90.3112 83.2508 90.1237 83.3528L90.0486 83.3941L89.9493 83.4505C89.9197 83.4677 89.8999 83.4794 89.8908 83.485C89.6973 83.6031 89.445 83.5414 89.3273 83.3474C89.2096 83.1533 89.271 82.9002 89.4645 82.7822L89.5369 82.7393C89.5878 82.7097 89.6537 82.6725 89.7327 82.6296C89.938 82.5179 90.1608 82.4064 90.3944 82.3021C90.7499 82.1433 91.0985 82.0153 91.4311 81.9292Z" fill="#00413F"/>
<path id="Vector_68" fill-rule="evenodd" clip-rule="evenodd" d="M76.5 86.576C83.6907 89.9352 87.7919 89.4827 90.0475 85.2597C91.729 82.1062 93.7932 77.184 92.3988 77.0058C90.9498 77.1977 89.3093 82.2159 89.3093 82.2159C89.3093 82.2159 92.1391 76.1694 90.6217 76.3614C89.4597 76.5259 88.4754 78.1438 87.2724 81.8594C87.2724 81.8594 89.1042 77.7599 89.0632 77.0058C88.9675 74.8806 87.1767 73.6878 85.2765 81.6949L86.2881 77.7325C86.6025 75.9226 84.88 76.7727 83.9504 78.6237C82.9525 80.6118 81.1753 83.7653 80.5328 85.6848" fill="white"/>
<path id="Vector_69" fill-rule="evenodd" clip-rule="evenodd" d="M81.7005 82.0763L81.8985 81.6882L82.1359 81.2286C82.3143 80.8878 83.3145 78.9735 83.5747 78.457L83.5842 78.4381C84.0647 77.4814 84.7836 76.7015 85.4246 76.4265C85.8958 76.2245 86.2764 76.3029 86.5027 76.5874L86.5223 76.6131L86.5374 76.584C86.8897 75.9071 87.2451 75.4541 87.6011 75.2195L87.6292 75.2014C88.1473 74.8767 88.6797 74.9992 89.0279 75.4704C89.2166 75.7257 89.3487 76.0775 89.4188 76.4795L89.4268 76.5276L89.4333 76.5216C89.7795 76.2055 90.1405 76.0229 90.5287 75.9591L90.5704 75.9528C90.9349 75.9067 91.2351 76.0729 91.3789 76.3971C91.4568 76.5729 91.4862 76.7846 91.4781 77.0367L91.4767 77.0675L91.5082 77.0381C91.5583 76.9922 91.6084 76.9496 91.6585 76.9106L91.6962 76.8819C91.9062 76.7256 92.1218 76.6271 92.3452 76.5975C92.3802 76.5928 92.4157 76.5928 92.4507 76.5972C93.0553 76.6745 93.2991 77.1963 93.2659 77.9449C93.2412 78.5032 93.0675 79.246 92.7654 80.1476C92.2471 81.6942 91.351 83.687 90.4091 85.4535C88.0159 89.9339 83.6538 90.3711 76.3269 86.9483C76.1216 86.8524 76.0326 86.6077 76.1283 86.4018C76.2239 86.1959 76.4679 86.1067 76.6732 86.2026C83.6547 89.464 87.5446 89.0742 89.6859 85.0652C90.5852 83.3786 91.4429 81.479 91.9505 79.9959L91.9879 79.8855C92.2677 79.0506 92.4259 78.374 92.4465 77.9084C92.456 77.6947 92.4353 77.5407 92.3958 77.4563L92.3882 77.4406C92.387 77.4384 92.386 77.4364 92.3849 77.4346L92.3823 77.4307L92.3673 77.4363C92.321 77.4545 92.2696 77.4828 92.2134 77.522L92.1849 77.5426C91.816 77.817 91.3901 78.438 90.9506 79.3023L90.9129 79.3767L90.8969 79.4228C90.8144 79.6573 90.7248 79.8998 90.6292 80.1484L90.5711 80.2984C90.3764 80.7972 90.168 81.2955 89.9597 81.7703L89.8984 81.909C89.8685 81.9765 89.8396 82.0412 89.8119 82.1028L89.6806 82.3902C89.4655 82.8497 88.7819 82.5864 88.9126 82.1108L88.9256 82.0692L88.9982 81.8561L89.0471 81.7164C89.0978 81.573 89.1538 81.4189 89.2147 81.256C89.4468 80.6353 89.7023 80.0143 89.9742 79.4328C90.0076 79.3613 90.041 79.291 90.0744 79.2219L90.1568 79.0533L90.18 78.986C90.4284 78.2613 90.5891 77.6583 90.6411 77.2248L90.6464 77.1774C90.6641 77.0073 90.662 76.8763 90.6471 76.7942L90.6429 76.774L90.6229 76.7778C90.1647 76.8701 89.7071 77.2996 89.2228 78.1423L89.2027 78.1774L89.1917 78.2103C89.0887 78.5148 88.9586 78.8664 88.8033 79.2653L88.7013 79.5247C88.652 79.6494 88.6008 79.7769 88.5481 79.907C88.3903 80.2961 88.2236 80.6948 88.0552 81.0888L87.8973 81.4557L87.6467 82.0271C87.4347 82.5014 86.7223 82.2262 86.8824 81.7319L86.9557 81.5072C87.4671 79.952 87.9444 78.7593 88.4267 77.8841L88.445 77.8511L88.4858 77.7264C88.5949 77.386 88.6546 77.1449 88.6539 77.0359L88.6536 77.0238C88.6328 76.5613 88.5223 76.1678 88.369 75.9603C88.2677 75.8232 88.2071 75.8093 88.064 75.899C87.4947 76.2559 86.7973 77.6662 86.1012 80.1392L86.0514 80.3175L85.6738 81.7964C85.5415 82.3149 84.7769 82.1342 84.8723 81.6241L84.8776 81.5991C84.9872 81.1371 85.0977 80.7001 85.2088 80.2879L85.2609 80.0969L85.8865 77.6463L85.8916 77.6164C85.9146 77.469 85.9207 77.3477 85.9123 77.2545L85.9094 77.2273C85.9053 77.1961 85.8998 77.1706 85.8934 77.151L85.8899 77.1414L85.8833 77.142C85.8555 77.1451 85.8174 77.1549 85.771 77.1731L85.7471 77.1829C85.3163 77.3677 84.7452 77.9806 84.3457 78.7514L84.0817 79.2678C83.648 80.1084 82.8751 81.5868 82.8378 81.6575L82.6787 81.9657C82.6274 82.0653 82.5777 82.1623 82.5292 82.2574L82.3856 82.5401C81.6671 83.9615 81.1891 85.0163 80.9216 85.8152C80.8496 86.0305 80.6171 86.1465 80.4023 86.0742C80.1876 86.0019 80.072 85.7687 80.1441 85.5533L80.1822 85.4417C80.4768 84.5938 80.9715 83.5139 81.7005 82.0763Z" fill="#00413F"/>
<path id="Vector_70" d="M55.5813 12.1551L57.8047 11.4766L56.6148 7.55452L54.3915 8.23303L55.5813 12.1551Z" fill="#9BE4E2"/>
<path id="Vector_71" fill-rule="evenodd" clip-rule="evenodd" d="M54.3258 8.94324C56.5832 8.94324 58.4133 7.10781 58.4133 4.84369C58.4133 2.57957 56.5832 0.744141 54.3258 0.744141C52.0683 0.744141 50.2383 2.57957 50.2383 4.84369C50.2383 7.10781 52.0683 8.94324 54.3258 8.94324Z" fill="#00413F"/>
<path id="Vector_72" fill-rule="evenodd" clip-rule="evenodd" d="M56.1003 9.84793C59.6957 9.10754 64.4257 9.34062 67.7613 11.0819C77.8228 16.9364 77.7818 24.0661 73.3799 27.1373C73.708 21.6256 72.9561 19.4318 71.1243 17.951C68.978 21.0223 61.5412 23.9427 55.4715 23.3257C55.4715 23.2983 54.8973 28.7826 55.4305 28.8101C55.4852 29.1391 56.2507 32.1829 56.2507 32.1829L54.8153 37.9278L40.4612 34.0339C39.641 33.9242 39.1078 33.0467 39.3949 32.2926C41.1448 27.5898 44.5214 12.3981 56.1003 9.84793Z" fill="#00413F"/>
<path id="Vector_73" fill-rule="evenodd" clip-rule="evenodd" d="M64.6606 37.9L64.1138 42.7263L65.7816 43.2884C66.014 43.7546 68.2423 50.5277 60.8192 50.1301C55.9798 49.8696 50.0605 44.2756 49.418 40.8204L50.826 40.793C52.9176 40.6148 54.2847 39.3397 54.8998 37.3242L56.5676 31.8398L64.6606 37.9Z" fill="white"/>
<path id="Vector_74" fill-rule="evenodd" clip-rule="evenodd" d="M54.5076 37.2056L54.4874 37.2706C53.9007 39.1254 52.6647 40.2025 50.8547 40.3788L50.8033 40.3834L49.4101 40.4106C49.1567 40.4156 48.9684 40.6475 49.0149 40.8973C49.3506 42.7026 51.0063 45.0323 53.2778 46.9869C55.6902 49.0627 58.4282 50.4148 60.7973 50.5423C64.2579 50.7277 66.1104 49.4211 66.5733 47.1158C66.7363 46.3043 66.7119 45.4234 66.5517 44.538L66.5304 44.4248C66.4202 43.86 66.2562 43.322 66.1485 43.1059L66.1356 43.0821C66.0857 42.9966 66.0065 42.9317 65.9123 42.8999L64.5587 42.4437L65.0682 37.9479C65.0846 37.8026 65.0229 37.6594 64.906 37.5719L56.8131 31.5117C56.5855 31.3412 56.2583 31.4488 56.1755 31.7213L54.5076 37.2056ZM56.7897 32.5207L64.2266 38.0895L63.7064 42.6811L63.7043 42.7062C63.6947 42.8895 63.8079 43.0584 63.9832 43.1175L65.4713 43.6191L65.4777 43.6371C65.499 43.6987 65.523 43.7725 65.5469 43.8523C65.6219 44.1025 65.6907 44.3865 65.7447 44.6848C65.8877 45.4755 65.9093 46.2557 65.7692 46.9533C65.39 48.8415 63.9104 49.8851 60.8411 49.7207C58.6787 49.6043 56.0989 48.3304 53.8119 46.3624L53.7374 46.298C51.8559 44.6617 50.4414 42.7676 49.9544 41.2633L49.9416 41.223L50.8341 41.2056L50.8608 41.2042C53.0726 41.0157 54.6122 39.6734 55.2921 37.4459L56.7897 32.5207Z" fill="#00413F"/>
<path id="Vector_75" fill-rule="evenodd" clip-rule="evenodd" d="M56.4722 30.5795L55.652 30.6481C55.652 30.6481 50.9083 30.6755 51.3048 26.3017C51.6055 22.9837 54.8454 23.5595 56.3902 24.0257" fill="white"/>
<path id="Vector_76" fill-rule="evenodd" clip-rule="evenodd" d="M53.2956 23.3409C54.257 23.1445 55.3656 23.2873 56.5049 23.6311C56.7217 23.6966 56.8447 23.926 56.7794 24.1435C56.7142 24.361 56.4854 24.4843 56.2685 24.4189C55.2476 24.1108 54.2596 23.9835 53.4593 24.147C52.435 24.3561 51.8292 25.0195 51.7097 26.3382C51.5473 28.1298 52.2759 29.2099 53.6268 29.7995C54.0628 29.9899 54.5346 30.1132 55.008 30.1815C55.1755 30.2056 55.3313 30.221 55.4711 30.2295L55.5405 30.2331L55.6326 30.2359L56.4347 30.1689C56.6523 30.1507 56.8444 30.3065 56.8747 30.5206L56.8774 30.5446C56.8956 30.7629 56.7402 30.9556 56.5267 30.986L56.5028 30.9887L55.6825 31.0573L55.6667 31.0583L55.6491 31.0587L55.5914 31.058C55.5542 31.0572 55.5085 31.0554 55.455 31.0525L55.422 31.0506C55.2603 31.0409 55.082 31.0233 54.8913 30.9957C54.3501 30.9177 53.8089 30.7762 53.2994 30.5538C51.6408 29.8298 50.6965 28.4299 50.8928 26.2638C51.0455 24.5794 51.9201 23.6218 53.2956 23.3409Z" fill="#00413F"/>
<path id="Vector_77" fill-rule="evenodd" clip-rule="evenodd" d="M73.381 27.1524C73.7091 21.6406 72.9572 19.6525 71.1254 18.1855C69.0064 21.2156 62.3762 24.1497 55.623 23.3682C55.3906 24.1086 55.582 23.4504 55.4452 24.2731C55.3632 25.1369 55.2949 26.1103 55.2539 26.9467C55.3359 30.1139 56.2381 32.2117 56.2381 32.2117C57.4685 35.4612 59.8608 38.1211 63.4288 38.9574C69.6489 40.4245 72.5881 31.7455 73.0119 29.7986C73.2306 28.8114 73.381 27.1524 73.381 27.1524Z" fill="white"/>
<path id="Vector_78" fill-rule="evenodd" clip-rule="evenodd" d="M70.7896 17.9486C69.7706 19.4057 67.6311 20.8437 64.9712 21.8192C62.0603 22.8867 58.7898 23.3199 55.6699 22.9589C55.4746 22.9363 55.2908 23.0559 55.2317 23.244L55.1242 23.5851L55.1071 23.644C55.0929 23.6972 55.087 23.7363 55.0878 23.786L55.0887 23.8119C55.0891 23.8189 55.09 23.8299 55.0902 23.8324L55.089 23.8573L55.0841 23.909C55.0767 23.9753 55.0627 24.0721 55.0407 24.2048L55.0369 24.2334C54.9563 25.083 54.8866 26.0613 54.8442 26.9258C54.8437 26.9361 54.8436 26.9464 54.8439 26.9567C54.8803 28.3627 55.0741 29.6675 55.3723 30.8402C55.469 31.2204 55.5708 31.563 55.6729 31.8651L55.7154 31.9884C55.7586 32.1117 55.796 32.2115 55.8259 32.2869L55.8547 32.357C57.2248 35.9755 59.8341 38.5366 63.3355 39.3573C66.2906 40.0543 68.7677 38.6887 70.7293 35.8944C72.0237 34.0505 73.018 31.6251 73.3937 29.9705L73.4125 29.8856C73.5103 29.4443 73.6009 28.8526 73.6829 28.1764C73.7059 27.9866 73.727 27.8003 73.746 27.6219L73.7746 27.3438C73.781 27.2791 73.7859 27.2269 73.7894 27.1892C74.1072 21.853 73.4715 19.5374 71.3812 17.8634C71.1964 17.7153 70.9254 17.7544 70.7896 17.9486ZM55.9096 23.8219L55.9127 23.8118L56.0134 23.8217C59.1303 24.1107 62.3608 23.6524 65.2528 22.5918L65.3552 22.5539C67.8745 21.6148 69.9571 20.2716 71.1476 18.8318L71.1893 18.7806L71.2368 18.8248C72.7822 20.2819 73.253 22.3996 72.9716 27.1272L72.9439 27.4051C72.9264 27.5755 72.9067 27.7548 72.8852 27.9385L72.8686 28.077C72.7932 28.6991 72.7104 29.246 72.6239 29.6517L72.6115 29.7086C72.2727 31.265 71.3075 33.6418 70.0586 35.4208C68.2705 37.9679 66.1003 39.1643 63.5227 38.5563C60.3049 37.8021 57.9 35.4417 56.6215 32.065L56.5907 31.9891L56.5762 31.9521C56.5509 31.8871 56.5232 31.8123 56.4936 31.7282L56.4756 31.6766C56.3717 31.3765 56.2667 31.0286 56.1671 30.6369L56.136 30.5124C55.8802 29.4706 55.7107 28.3195 55.6683 27.084L55.6642 26.9512L55.6736 26.7677C55.7124 26.033 55.7696 25.2304 55.8353 24.5067L55.852 24.3257L55.8745 24.1862C55.901 24.0143 55.9098 23.9234 55.9099 23.8428L55.9096 23.8219Z" fill="#00413F"/>
<path id="Vector_79" fill-rule="evenodd" clip-rule="evenodd" d="M68.9128 23.7932C69.1311 23.7863 69.3149 23.9518 69.3342 24.1672L69.3356 24.1913L69.568 31.5678C69.5758 31.815 69.3666 32.0111 69.1244 31.9907L69.1001 31.988L67.2819 31.7274C67.0577 31.6953 66.9019 31.487 66.9339 31.2621C66.9648 31.0452 67.1591 30.8922 67.374 30.9103L67.3979 30.9131L68.7327 31.1043L68.5158 24.2173C68.5089 23.9984 68.6739 23.814 68.8887 23.7947L68.9128 23.7932Z" fill="#00413F"/>
<path id="Vector_80" fill-rule="evenodd" clip-rule="evenodd" d="M63.8865 22.918C64.5077 22.5323 65.1672 22.3802 65.8113 22.6295C66.0172 22.7092 66.2121 22.8289 66.3936 22.989C66.5637 23.139 66.5803 23.3989 66.4307 23.5695C66.2811 23.7401 66.022 23.7568 65.8519 23.6067C65.7421 23.5099 65.6304 23.4413 65.516 23.397C65.1574 23.2582 64.7429 23.3538 64.3183 23.6175C64.2129 23.6829 64.1162 23.7533 64.0312 23.8233L63.9828 23.864C63.96 23.8838 63.9439 23.8986 63.9354 23.907C63.7736 24.066 63.5139 24.0633 63.3554 23.9011C63.1969 23.7388 63.1996 23.4783 63.3614 23.3194C63.4692 23.2134 63.6491 23.0654 63.8865 22.918Z" fill="#00413F"/>
<path id="Vector_81" fill-rule="evenodd" clip-rule="evenodd" d="M63.84 32.7818C64.062 32.7365 64.2785 32.8801 64.3238 33.1027C64.4129 33.5419 64.68 33.7983 65.1057 33.934C65.3938 34.0259 65.7093 34.0479 65.9791 34.0289L66.031 34.0244C66.2557 33.9962 66.4607 34.1561 66.4888 34.3815C66.5169 34.6069 66.3575 34.8125 66.1327 34.8407L66.1024 34.844C66.0845 34.8458 66.0624 34.8477 66.0365 34.8495C65.6722 34.8752 65.2599 34.8465 64.8571 34.718C64.1672 34.498 63.6739 34.0243 63.52 33.2669C63.4748 33.0443 63.6181 32.8271 63.84 32.7818Z" fill="#00413F"/>
<path id="Vector_82" fill-rule="evenodd" clip-rule="evenodd" d="M71.2876 23.9354C71.6943 23.8227 72.1142 23.7787 72.5208 23.8468C73.1024 23.9442 73.5804 24.2649 73.8816 24.8341C73.9878 25.0348 73.9116 25.2838 73.7116 25.3903C73.5115 25.4967 73.2632 25.4204 73.1571 25.2197C72.9809 24.8866 72.7251 24.7151 72.3858 24.6582C72.114 24.6127 71.8073 24.6449 71.5059 24.7284C71.4482 24.7444 71.3947 24.7612 71.3462 24.7781L71.2712 24.8057L71.2501 24.8143C71.0425 24.9052 70.8007 24.8101 70.7101 24.6019C70.6195 24.3937 70.7143 24.1512 70.9219 24.0604L70.9644 24.0425C71.0418 24.0113 71.1517 23.973 71.2876 23.9354Z" fill="#00413F"/>
<path id="Vector_83" fill-rule="evenodd" clip-rule="evenodd" d="M65.6242 26.9999C65.7144 26.4853 65.5163 26.0203 65.1817 25.9613C64.847 25.9023 64.5026 26.2716 64.4124 26.7862C64.3222 27.3008 64.5203 27.7658 64.8549 27.8248C65.1895 27.8838 65.5339 27.5145 65.6242 26.9999Z" fill="#00413F"/>
<path id="Vector_84" fill-rule="evenodd" clip-rule="evenodd" d="M72.007 28.0917C72.0973 27.5771 71.8991 27.1121 71.5645 27.0531C71.2299 26.9941 70.8855 27.3634 70.7953 27.878C70.705 28.3926 70.9032 28.8576 71.2378 28.9166C71.5724 28.9756 71.9168 28.6063 72.007 28.0917Z" fill="#00413F"/>
<path id="Vector_85" fill-rule="evenodd" clip-rule="evenodd" d="M59.7001 24.7523C59.19 27.7384 60.631 30.5174 62.9895 30.9243C65.3479 31.3312 67.6288 29.1942 68.1389 26.2081C68.649 23.2219 67.208 20.4429 64.8495 20.036C62.4911 19.6292 60.2103 21.7661 59.7001 24.7523ZM60.5089 24.8918C60.9496 22.3121 62.8556 20.5264 64.7111 20.8465C66.5666 21.1666 67.7708 23.4889 67.3301 26.0685C66.8894 28.6482 64.9834 30.4339 63.1279 30.1138C61.2724 29.7937 60.0682 27.4714 60.5089 24.8918Z" fill="#9BE4E2"/>
<path id="Vector_86" fill-rule="evenodd" clip-rule="evenodd" d="M69.7665 26.8499C69.2564 29.836 70.6974 32.6151 73.0558 33.0219C75.4143 33.4288 77.6951 31.2919 78.2053 28.3057C78.7154 25.3195 77.2743 22.5405 74.9159 22.1337C72.5575 21.7268 70.2766 23.8637 69.7665 26.8499ZM70.5752 26.9894C71.0159 24.4097 72.9219 22.624 74.7775 22.9441C76.633 23.2642 77.8372 25.5865 77.3965 28.1661C76.9558 30.7458 75.0498 32.5315 73.1943 32.2114C71.3388 31.8913 70.1345 29.569 70.5752 26.9894Z" fill="#9BE4E2"/>
<path id="Vector_87" fill-rule="evenodd" clip-rule="evenodd" d="M67.3554 25.7796C67.3849 25.5626 67.5782 25.4083 67.7932 25.4251L67.8172 25.4276L70.2232 25.7567C70.4476 25.7874 70.6048 25.9948 70.5742 26.2198C70.5446 26.4369 70.3513 26.5912 70.1364 26.5744L70.1124 26.5718L67.7064 26.2428C67.4819 26.2121 67.3248 26.0047 67.3554 25.7796Z" fill="#9BE4E2"/>
<path id="Vector_88" fill-rule="evenodd" clip-rule="evenodd" d="M55.0608 23.3536L60.2966 23.5319C60.523 23.5396 60.7002 23.7299 60.6926 23.9569C60.6851 24.1759 60.5085 24.349 60.2929 24.3542L60.2688 24.3541L55.0329 24.1758C54.8066 24.1681 54.6293 23.9778 54.637 23.7508C54.6444 23.5318 54.8211 23.3587 55.0367 23.3535L55.0608 23.3536Z" fill="#9BE4E2"/>
<path id="Vector_89" fill-rule="evenodd" clip-rule="evenodd" d="M38.7261 54.3398L45.8075 51.9541L41.8703 44.0977L33.9688 48.2247L38.7261 54.3398Z" fill="white"/>
<path id="Vector_90" fill-rule="evenodd" clip-rule="evenodd" d="M42.5 44.8398C42.5 44.8398 44.9334 48.336 45.6989 49.4466C46.9293 51.2427 46.5875 53.2994 44.5369 52.4904" fill="white"/>
<path id="Vector_91" fill-rule="evenodd" clip-rule="evenodd" d="M42.2653 44.5018C42.4439 44.3768 42.6871 44.4141 42.8208 44.5828L42.8422 44.6121L46.037 49.213C46.7002 50.1812 46.9746 51.2711 46.7416 52.0614C46.4623 53.0088 45.5524 53.3324 44.3868 52.8725C44.176 52.7894 44.0724 52.5506 44.1553 52.3392C44.2382 52.1278 44.4763 52.0238 44.6871 52.107C45.4398 52.4039 45.8257 52.2667 45.955 51.8281C46.1055 51.3177 45.9052 50.4973 45.3967 49.732L43.8768 47.5382L42.1637 45.0745C42.0341 44.8883 42.0796 44.6318 42.2653 44.5018Z" fill="#00413F"/>
<path id="Vector_92" fill-rule="evenodd" clip-rule="evenodd" d="M40.6836 47.3887C40.6836 47.3887 45.0582 52.4891 45.3726 53.9562C45.687 55.4232 43.8688 56.3282 42.3651 54.0384" fill="white"/>
<path id="Vector_93" fill-rule="evenodd" clip-rule="evenodd" d="M40.4161 47.078C40.5878 46.9299 40.8468 46.9494 40.9945 47.1216L41.1988 47.3623L41.3093 47.4935C41.4413 47.6506 41.5838 47.8215 41.7347 48.004C42.289 48.6744 42.8434 49.3641 43.3613 50.0356C43.4769 50.1854 43.5895 50.3328 43.6989 50.4776L43.8072 50.6216C44.9442 52.1384 45.6383 53.2401 45.7735 53.8709C45.9732 54.8025 45.4844 55.6361 44.6326 55.8103C43.7612 55.9886 42.7923 55.438 42.0225 54.2659C41.8979 54.0762 41.9503 53.8211 42.1394 53.6961C42.3286 53.5712 42.5829 53.6237 42.7075 53.8134C43.3098 54.7305 43.9709 55.1061 44.4686 55.0043C44.8553 54.9252 45.0788 54.5441 44.9716 54.0438C44.8724 53.581 44.2032 52.5188 43.1516 51.116C43.0109 50.9283 42.8644 50.7358 42.7126 50.539C42.2009 49.8756 41.6521 49.1928 41.1033 48.5291L40.7966 48.1603L40.4791 47.7831L40.3726 47.6581C40.2249 47.4859 40.2444 47.2262 40.4161 47.078Z" fill="#00413F"/>
<path id="Vector_94" fill-rule="evenodd" clip-rule="evenodd" d="M38.9452 48.7461C38.9452 48.7461 43.101 53.6683 42.5952 55.3273C42.0484 57.192 39.41 53.4215 38.4531 52.3383" fill="white"/>
<path id="Vector_95" fill-rule="evenodd" clip-rule="evenodd" d="M38.6802 48.4334C38.8464 48.2922 39.0921 48.3067 39.2409 48.4621L39.2637 48.488L39.3945 48.6457L39.5705 48.862C39.6569 48.9691 39.7484 49.0837 39.8441 49.2053C40.2816 49.7608 40.7192 50.3463 41.1282 50.9355C41.4047 51.3339 41.6589 51.7208 41.8859 52.0921C42.791 53.5725 43.2176 54.694 42.9887 55.4446C42.7751 56.173 42.2199 56.4167 41.5749 56.1345C41.1503 55.9487 40.671 55.5431 40.1012 54.9335C39.9011 54.7195 39.6921 54.4824 39.4662 54.2152L39.2681 53.9765C38.9024 53.5321 38.2733 52.7562 38.1462 52.6123C37.996 52.4423 38.0116 52.1823 38.1811 52.0317C38.3507 51.881 38.6099 51.8967 38.7601 52.0667L38.8173 52.1335C39.0784 52.4425 39.8676 53.4179 40.0918 53.6831C40.2853 53.912 40.465 54.1169 40.6359 54.3023L40.6996 54.3709C41.1978 54.9039 41.6091 55.2519 41.9029 55.3805L41.9408 55.3967C42.1074 55.4657 42.1351 55.4401 42.2031 55.2082C42.3361 54.7721 41.9636 53.7929 41.1866 52.5221C40.9685 52.1653 40.723 51.7915 40.455 51.4056C40.0563 50.8312 39.6284 50.2586 39.2004 49.7152L39.0366 49.5087C38.9661 49.4204 38.8985 49.3366 38.8344 49.258L38.6323 49.0131C38.4859 48.8397 38.5074 48.5802 38.6802 48.4334Z" fill="#00413F"/>
<path id="Vector_96" fill-rule="evenodd" clip-rule="evenodd" d="M42.4988 44.8384L44.7408 45.9216C44.7955 45.949 44.8638 45.9764 44.9322 46.0038C46.3266 46.4563 46.8461 45.9901 47.0374 45.428C47.2288 44.8521 47.0374 44.2214 46.5863 43.8101C43.9616 41.3695 37.3177 40.6566 37.3177 40.6566C35.7046 40.4646 31.4667 42.247 32.2322 45.8256C32.9978 49.4041 35.5132 53.9561 37.8782 55.2861C40.2295 56.6023 40.8037 55.053 38.466 52.352C38.4387 52.3108 36.7299 50.1719 36.7299 50.1719" fill="white"/>
<path id="Vector_97" fill-rule="evenodd" clip-rule="evenodd" d="M33.6388 41.4971C34.7798 40.6463 36.3126 40.147 37.309 40.242L37.4831 40.2617L37.639 40.2812C37.6947 40.2884 37.754 40.2962 37.8167 40.3048L38.036 40.3355C38.3347 40.3785 38.6579 40.4298 39.0007 40.4897C40.2256 40.7038 41.451 40.9841 42.5979 41.3394C44.4478 41.9125 45.9151 42.6247 46.8627 43.5058C47.4389 44.0311 47.668 44.833 47.4261 45.5609C47.1098 46.4899 46.2437 46.8445 44.8627 46.4131L44.8064 46.3952L44.7804 46.3858L44.6785 46.3443C44.6371 46.327 44.6074 46.3138 44.578 46.2995L42.3215 45.209C42.1174 45.1104 42.0316 44.8646 42.1299 44.6599C42.2245 44.4628 42.4553 44.3758 42.6545 44.4577L42.6774 44.4679L44.9428 45.5624C44.9556 45.5684 44.9704 45.575 44.9895 45.583L45.0712 45.6164L45.1093 45.6286C46.0709 45.931 46.4743 45.7759 46.6405 45.3217L46.6489 45.2979C46.7847 44.8893 46.6522 44.4256 46.308 44.1118C45.4663 43.3291 44.0985 42.6653 42.3558 42.1254C41.2457 41.7816 40.053 41.5087 38.8599 41.3001C38.4837 41.2344 38.1319 41.1794 37.8118 41.1345L37.7063 41.1199C37.6052 41.1062 37.5137 41.0943 37.4325 41.0842L37.2699 41.0651C36.4947 40.9728 35.1312 41.4094 34.1282 42.1573C32.9008 43.0724 32.3245 44.2939 32.6337 45.7393C33.4163 49.3975 35.9347 53.7213 38.0786 54.927C39.0072 55.4468 39.4766 55.4436 39.5341 55.2221C39.6454 54.7925 39.177 53.8005 38.1568 52.6216L38.1404 52.6014L38.1121 52.5635L36.9851 51.149L36.4103 50.4292C36.2687 50.2519 36.2972 49.993 36.4739 49.851C36.6439 49.7144 36.889 49.7355 37.0336 49.895L37.1251 50.0082L38.7162 52.0048L38.7808 52.0878L38.8288 52.1435C39.9594 53.4657 40.5088 54.6304 40.3364 55.3941L40.3279 55.429C40.2053 55.9022 39.8159 56.1706 39.294 56.1741C38.8514 56.1771 38.3052 55.9959 37.6781 55.6449C35.2947 54.3046 32.6591 49.7794 31.8318 45.9119C31.449 44.1226 32.1716 42.591 33.6388 41.4971Z" fill="#00413F"/>
<path id="Vector_98" fill-rule="evenodd" clip-rule="evenodd" d="M162.157 49.3215L154.953 47.4019L158.384 39.2988L166.518 42.9322L162.157 49.3215Z" fill="white"/>
<path id="Vector_99" fill-rule="evenodd" clip-rule="evenodd" d="M157.796 40.082C157.796 40.082 155.581 43.7291 154.897 44.8808C153.776 46.7455 154.255 48.7884 156.251 47.8424" fill="white"/>
<path id="Vector_100" fill-rule="evenodd" clip-rule="evenodd" d="M158.009 39.73C158.195 39.8438 158.259 40.0827 158.158 40.2735L158.013 40.5144L156.827 42.4711L155.41 44.8213L155.249 45.0925C154.762 45.9017 154.603 46.7604 154.79 47.2732C154.948 47.7044 155.344 47.8168 156.076 47.4698C156.28 47.3727 156.525 47.4605 156.622 47.6659C156.718 47.8713 156.631 48.1165 156.426 48.2136C155.292 48.7512 154.361 48.4863 154.02 47.5567C153.742 46.7953 153.934 45.7152 154.511 44.7277L154.929 44.0276L155.897 42.4232L157.445 39.8674C157.563 39.6733 157.816 39.6118 158.009 39.73Z" fill="#00413F"/>
<path id="Vector_101" fill-rule="evenodd" clip-rule="evenodd" d="M159.779 42.5078C159.779 42.5078 155.732 47.8825 155.514 49.3632C155.295 50.844 157.154 51.6392 158.521 49.2536" fill="white"/>
<path id="Vector_102" fill-rule="evenodd" clip-rule="evenodd" d="M160.026 42.1808C160.206 42.3177 160.242 42.5756 160.106 42.7569L159.924 43.0008L159.721 43.2765C159.65 43.373 159.576 43.4739 159.5 43.5788L159.442 43.6582C158.944 44.3453 158.446 45.0526 157.981 45.7401C157.868 45.9065 157.759 46.0699 157.653 46.2301L157.575 46.3497C156.599 47.836 155.989 48.9535 155.919 49.4246C155.844 49.9306 156.091 50.2974 156.479 50.3522C156.981 50.4228 157.617 50.006 158.165 49.0498C158.278 48.8529 158.529 48.7848 158.725 48.898C158.922 49.0112 158.989 49.2628 158.876 49.4597C158.177 50.6802 157.245 51.2907 156.365 51.1669C155.507 51.0459 154.969 50.2449 155.108 49.3042C155.203 48.6618 155.835 47.5043 156.889 45.8975C157.022 45.696 157.159 45.4895 157.302 45.2784C157.713 44.6696 158.15 44.0465 158.59 43.4353L158.779 43.1743C158.877 43.0394 158.971 42.9106 159.06 42.7888L159.325 42.4306L159.451 42.2612C159.588 42.0799 159.845 42.0439 160.026 42.1808Z" fill="#00413F"/>
<path id="Vector_103" fill-rule="evenodd" clip-rule="evenodd" d="M161.598 43.7695C161.598 43.7695 157.77 48.9385 158.358 50.5701C159.028 52.3937 161.42 48.4724 162.295 47.3206" fill="white"/>
<path id="Vector_104" fill-rule="evenodd" clip-rule="evenodd" d="M161.843 43.4385C162.018 43.5688 162.06 43.812 161.943 43.9926L161.918 44.0275L161.79 44.2045L161.659 44.3877C161.584 44.4943 161.504 44.6086 161.42 44.7298C161.037 45.2841 160.655 45.8683 160.298 46.4548C160.056 46.853 159.834 47.2388 159.638 47.607L159.568 47.7389C158.894 49.0259 158.591 50.0039 158.744 50.4271L158.761 50.4736C158.834 50.6607 158.868 50.6652 159.025 50.5923C159.288 50.4704 159.654 50.1346 160.088 49.6202C160.273 49.4006 160.468 49.1523 160.679 48.8703L160.777 48.7385C161.069 48.3387 161.84 47.2416 161.97 47.0706C162.107 46.8899 162.364 46.855 162.545 46.9927C162.725 47.1304 162.759 47.3885 162.622 47.5691L162.537 47.6856C162.292 48.0265 161.664 48.9178 161.418 49.253L161.401 49.275C161.156 49.6058 160.93 49.8953 160.714 50.1517L160.614 50.2691C160.149 50.8043 159.744 51.1654 159.369 51.339C158.765 51.6194 158.225 51.3939 157.973 50.7091C157.703 49.958 158.077 48.7868 158.915 47.2184C159.119 46.8359 159.348 46.4371 159.598 46.0265C159.923 45.492 160.268 44.9608 160.615 44.4515L160.746 44.2615C160.848 44.1128 160.946 43.9741 161.036 43.847L161.212 43.6025L161.27 43.5235C161.405 43.3411 161.661 43.3031 161.843 43.4385Z" fill="#00413F"/>
<path id="Vector_105" fill-rule="evenodd" clip-rule="evenodd" d="M157.8 40.0824L155.64 41.3027C155.585 41.3301 155.517 41.3713 155.462 41.3987C154.109 41.9471 153.548 41.5084 153.329 40.9599C153.097 40.3978 153.261 39.7534 153.671 39.3146C156.146 36.7096 162.721 35.5853 162.721 35.5853C164.321 35.2973 168.668 36.8055 168.121 40.4252C167.574 44.0449 165.36 48.7477 163.077 50.2148C160.807 51.6681 160.137 50.1599 162.311 47.3218C162.338 47.2806 163.91 45.0321 163.91 45.0321" fill="white"/>
<path id="Vector_106" fill-rule="evenodd" clip-rule="evenodd" d="M166.449 36.195C167.983 37.1943 168.8 38.6768 168.526 40.4869C167.933 44.414 165.593 49.0863 163.297 50.5615C162.693 50.9487 162.158 51.1621 161.716 51.1858C161.194 51.2137 160.789 50.97 160.638 50.5055C160.397 49.7675 160.856 48.582 161.889 47.1995L161.979 47.0796L163.574 44.796C163.705 44.61 163.96 44.5649 164.146 44.6954C164.324 44.8208 164.372 45.0627 164.26 45.2465L163.996 45.6258L162.652 47.55L162.636 47.5724C161.688 48.8109 161.28 49.8286 161.417 50.2498C161.488 50.4676 161.959 50.4424 162.855 49.8685C164.918 48.5428 167.154 44.0788 167.715 40.3637C167.936 38.9021 167.286 37.7207 166.002 36.8849C164.974 36.215 163.615 35.8646 162.833 35.9836L162.683 36.01L162.538 36.0374C162.486 36.0474 162.431 36.0582 162.373 36.07L162.166 36.1121C161.885 36.1706 161.58 36.2384 161.257 36.3157C160.103 36.5916 158.95 36.9302 157.876 37.3332C156.131 37.9883 154.775 38.7483 153.97 39.596C153.652 39.9362 153.547 40.4127 153.71 40.8072C153.893 41.2668 154.312 41.4102 155.259 41.0371L155.292 41.0239L155.419 40.9543L155.447 40.9394L157.598 39.7241C157.788 39.6168 158.027 39.6778 158.144 39.8592L158.157 39.8806C158.264 40.0712 158.203 40.3109 158.022 40.4279L158.001 40.4409L155.841 41.6612L155.779 41.6939L155.683 41.7472C155.67 41.7542 155.658 41.7602 155.645 41.7667C155.636 41.7715 155.626 41.776 155.616 41.7801C154.24 42.3374 153.317 42.0365 152.95 41.1175C152.661 40.4172 152.841 39.601 153.374 39.031C154.285 38.072 155.738 37.2575 157.589 36.5627C158.698 36.1466 159.883 35.7987 161.067 35.5155C161.481 35.4164 161.866 35.3324 162.212 35.2632L162.437 35.2194L162.648 35.1805C163.639 35.0021 165.236 35.405 166.449 36.195Z" fill="#00413F"/>
<path id="Vector_107" fill-rule="evenodd" clip-rule="evenodd" d="M190.757 91.7031C190.983 91.7031 191.167 91.8873 191.167 92.1145C191.167 92.3335 190.996 92.5126 190.781 92.5251L190.757 92.5258H0.0663663C-0.160135 92.5258 -0.34375 92.3416 -0.34375 92.1145C-0.34375 91.8954 -0.173016 91.7163 0.0422689 91.7038L0.0663663 91.7031H190.757Z" fill="#00413F"/>
</g>
</g>
</g>
</svg>
