<svg width="16" height="10" viewBox="0 0 16 10" fill="none" xmlns="http://www.w3.org/2000/svg">
<g id="Icon">
<path id="Vector" d="M8.85923 9.29688C8.50766 9.67448 8.08286 9.86328 7.58481 9.86328C7.08676 9.86328 6.66196 9.67448 6.3104 9.29688L0.597506 3.1543C0.3436 2.86784 0.197115 2.55534 0.158053 2.2168C0.11899 1.87174 0.164563 1.55111 0.294772 1.25488C0.42498 0.958659 0.630058 0.712891 0.910006 0.517578C1.18995 0.315755 1.52199 0.214844 1.9061 0.214844H13.2635C13.6411 0.214844 13.9699 0.315755 14.2499 0.517578C14.5298 0.712891 14.7365 0.958659 14.87 1.25488C15.0034 1.55111 15.0506 1.87174 15.0116 2.2168C14.9725 2.55534 14.8228 2.86784 14.5624 3.1543L8.85923 9.29688Z" fill="#3DD2CE"/>
</g>
</svg>
