<svg width="23" height="22" viewBox="0 0 23 22" fill="none" xmlns="http://www.w3.org/2000/svg">
<g id="Icon">
<path id="Vector" d="M21.5839 19.6152L17.5233 15.5547C18.1822 14.7096 18.6799 13.7858 19.0165 12.7832C19.3531 11.7806 19.5214 10.7637 19.5214 9.73242C19.5214 8.77279 19.3889 7.8418 19.1239 6.93945C18.859 6.03711 18.4543 5.20638 17.9101 4.44727C17.3801 3.67383 16.7535 2.98991 16.0302 2.39551C15.3069 1.80111 14.5012 1.31055 13.6132 0.923828C12.7395 0.580078 11.8336 0.354492 10.8954 0.24707C9.95726 0.139648 9.02269 0.186198 8.0917 0.386719C7.17503 0.572917 6.30492 0.880859 5.48135 1.31055C4.65778 1.74023 3.92373 2.29883 3.2792 2.98633C2.62035 3.67383 2.06891 4.43294 1.6249 5.26367C1.18089 6.0944 0.858626 6.9681 0.658105 7.88477C0.471908 8.81576 0.428939 9.75033 0.529199 10.6885C0.62946 11.6266 0.851465 12.5326 1.19521 13.4062C1.53896 14.2943 2.01162 15.0999 2.61318 15.8232C3.21475 16.5465 3.92373 17.1732 4.74014 17.7031C5.49925 18.2474 6.33714 18.652 7.25381 18.917C8.17048 19.182 9.0943 19.3145 10.0253 19.3145C11.0995 19.3145 12.1272 19.1462 13.1083 18.8096C14.0894 18.473 15.0025 17.9753 15.8476 17.3164L19.9081 21.377C19.9511 21.4199 20.0048 21.4701 20.0692 21.5273C20.1337 21.5846 20.2089 21.6133 20.2948 21.6133C20.3664 21.6562 20.4416 21.6813 20.5204 21.6885C20.5992 21.6956 20.6744 21.6992 20.746 21.6992C20.8319 21.6992 20.9107 21.6956 20.9823 21.6885C21.0539 21.6813 21.1327 21.6562 21.2187 21.6133C21.2903 21.5703 21.3619 21.5309 21.4335 21.4951C21.5051 21.4593 21.5552 21.4199 21.5839 21.377C21.6269 21.3483 21.677 21.2982 21.7343 21.2266C21.7916 21.1549 21.8202 21.0833 21.8202 21.0117C21.8632 20.9258 21.8882 20.847 21.8954 20.7754C21.9026 20.7038 21.9062 20.625 21.9062 20.5391C21.9062 20.4674 21.9026 20.3923 21.8954 20.3135C21.8882 20.2347 21.8632 20.1595 21.8202 20.0879C21.7772 19.9733 21.7379 19.8766 21.7021 19.7979C21.6662 19.7191 21.6269 19.6582 21.5839 19.6152ZM2.80654 9.73242C2.80654 9.00195 2.91755 8.30013 3.13955 7.62695C3.36156 6.95378 3.65876 6.33073 4.03115 5.75781C4.41787 5.17057 4.89053 4.65495 5.44912 4.21094C6.00771 3.76693 6.60928 3.40885 7.25381 3.13672C7.91266 2.87891 8.59658 2.71419 9.30557 2.64258C10.0146 2.57096 10.7128 2.60677 11.4003 2.75C12.0878 2.90755 12.7466 3.14746 13.3769 3.46973C14.0071 3.79199 14.5728 4.2181 15.0741 4.74805C15.5754 5.24935 15.9944 5.8151 16.331 6.44531C16.6675 7.07552 16.9146 7.73438 17.0722 8.42188C17.2297 9.1237 17.2727 9.8291 17.2011 10.5381C17.1295 11.2471 16.9576 11.9238 16.6854 12.5684C16.4133 13.2272 16.0552 13.8324 15.6112 14.3838C15.1672 14.9352 14.6588 15.4043 14.0858 15.791C13.5129 16.1777 12.8863 16.4785 12.206 16.6934C11.5256 16.9082 10.8202 17.0156 10.0897 17.0156C9.13011 17.0156 8.22061 16.833 7.36123 16.4678C6.50186 16.1025 5.72842 15.5977 5.04092 14.9531C4.31045 14.1797 3.75544 13.3561 3.37588 12.4824C2.99632 11.6087 2.80654 10.6921 2.80654 9.73242Z" fill="#3DD2CE"/>
</g>
</svg>
