<svg width="20" height="20" viewBox="0 0 20 20" fill="none" xmlns="http://www.w3.org/2000/svg">
<g id="SVG" clip-path="url(#clip0_357_66133)">
<path id="Vector" d="M2 19.5C1.45 19.5 0.979167 19.3042 0.5875 18.9125C0.195833 18.5208 0 18.05 0 17.5V6.5C0 5.95 0.195833 5.47917 0.5875 5.0875C0.979167 4.69583 1.45 4.5 2 4.5H6V2.5C6 1.95 6.19583 1.47917 6.5875 1.0875C6.97917 0.695833 7.45 0.5 8 0.5H12C12.55 0.5 13.0208 0.695833 13.4125 1.0875C13.8042 1.47917 14 1.95 14 2.5V4.5H18C18.55 4.5 19.0208 4.69583 19.4125 5.0875C19.8042 5.47917 20 5.95 20 6.5V17.5C20 18.05 19.8042 18.5208 19.4125 18.9125C19.0208 19.3042 18.55 19.5 18 19.5H2ZM2 17.5H18V6.5H2V17.5ZM8 4.5H12V2.5H8V4.5Z" fill="#0DB5B0"/>
</g>
<defs>
<clipPath id="clip0_357_66133">
<rect width="20" height="20" fill="white"/>
</clipPath>
</defs>
</svg>
