<svg width="38" height="38" viewBox="0 0 38 38" fill="none" xmlns="http://www.w3.org/2000/svg">
<g id="SVG" clip-path="url(#clip0_357_66157)">
<path id="Vector" opacity="0.1" d="M19 38C29.4934 38 38 29.4934 38 19C38 8.50659 29.4934 0 19 0C8.50659 0 0 8.50659 0 19C0 29.4934 8.50659 38 19 38Z" fill="#00A09D"/>
<path id="Vector_2" d="M22.3787 21.8162C21.476 21.4228 20.2722 21.041 19 21.041C17.7278 21.041 16.524 21.4228 15.6213 21.8162C14.5736 22.2727 13.9646 23.3154 13.83 24.4503L13.75 25.1244H24.25L24.17 24.4503C24.0354 23.3154 23.4264 22.2727 22.3787 21.8162Z" stroke="#00A09D" stroke-width="2" stroke-linecap="round" stroke-linejoin="round"/>
<path id="Vector_3" d="M19 18.416C20.4497 18.416 21.625 17.2408 21.625 15.791C21.625 14.3413 20.4497 13.166 19 13.166C17.5503 13.166 16.375 14.3413 16.375 15.791C16.375 17.2408 17.5503 18.416 19 18.416Z" stroke="#00A09D" stroke-width="2" stroke-linecap="round" stroke-linejoin="round"/>
</g>
<defs>
<clipPath id="clip0_357_66157">
<rect width="38" height="38" fill="white"/>
</clipPath>
</defs>
</svg>
